<svg version="1.2" xmlns="http://www.w3.org/2000/svg" viewBox="0 0 750 631" width="750" height="631">
	<style>
		.s0 { fill: #282a36 } 
	</style>
	<g>
		<path class="s0" d="m664.37 213.96c-6.72-16.68-20.54-20.88-21.82-22-11.7-10.34-2.47-21.22-19.95-30.7-18.28-9.91-71.98-37-114.22-31.37-9.22 1.23-27.83 17.6-41.21 17.6-21.86 0-92.17 0-92.17 0 0 0-70.3 0-92.16 0-13.38 0-31.99-16.37-41.22-17.6-42.24-5.63-95.93 21.46-114.22 31.37-17.47 9.48-8.24 20.36-19.94 30.7-1.28 1.12-15.1 5.32-21.82 22-62.75 156.02-87.38 255.15-85.55 315.17 2.9 94.42 76.58 101.33 76.58 101.33 37.04-8.62 111.55-129.14 168.54-129.14 31.16 0 129.79 0 129.79 0 0.01 0 98.64 0 129.8 0 56.99 0 131.5 120.52 168.54 129.13 0 0.01 73.68-6.9 76.56-101.32 1.87-60.02-22.81-159.15-85.53-315.17z"/>
		<path class="s0" d="m548.36 114.95l50.43 6.84c-12.06-116.82-42.97-111.03-49.71-116.32q-0.6-0.48-1.21-0.9c-6.42-4.48-13.57-4.88-25.83-4.43-10.82 0.4-12.06 11.44-12.18 15.19v1.23c0 0 2.9 40.71 0 93.09 9.79 2.26 37.72 5.21 38.5 5.3z"/>
		<path class="s0" d="m201.68 114.95c0 0 28.61-3.01 38.53-5.3-2.9-52.38 0-93.09 0-93.09v-1.23c-0.12-3.75-1.36-14.79-12.19-15.19-12.25-0.45-19.4-0.05-25.81 4.43q-0.61 0.42-1.21 0.9c-6.76 5.29-37.65-0.5-49.72 116.32l50.4-6.84z"/>
	</g>
</svg>