<svg version="1.2" xmlns="http://www.w3.org/2000/svg" viewBox="0 0 33 34" width="33" height="34">
	<style>
		.s0 { fill: #8be9fd;stroke: #282a36;stroke-miterlimit:10 } 
		.s1 { fill: #282a36 } 
	</style>
	<g id="Menu_Pressed">
		<path class="s0" d="m66.91 16.6c0 8.91-7.23 16.11-16.1 16.11-8.9 0-16.1-7.2-16.1-16.11 0-8.89 7.2-16.1 16.1-16.1 8.87 0 16.1 7.21 16.1 16.1z"/>
		<g>
			<path fill-rule="evenodd" class="s1" d="m43.61 11.98h14.36v1.55h-14.36z"/>
			<path fill-rule="evenodd" class="s1" d="m43.61 15.9h14.36v1.55h-14.36z"/>
			<path fill-rule="evenodd" class="s1" d="m43.61 19.71h14.36v1.53h-14.36z"/>
		</g>
	</g>
	<g id="Switcher_PRessed">
		<path class="s0" d="m32.71 16.6c0 8.91-7.2 16.11-16.11 16.11-8.87 0-16.1-7.2-16.1-16.11 0-8.89 7.23-16.1 16.1-16.1 8.9 0 16.11 7.21 16.11 16.1z"/>
		<g>
			<path fill-rule="evenodd" class="s1" d="m14.09 16.5h-3.03v-3.78h5.47v1.32h1.8v-3.06h-8.89v7.39h4.65z"/>
			<path class="s1" d="m14.84 14.66v7.59h8.96v-7.59zm7.16 5.79h-5.47v-3.95h5.47z"/>
		</g>
	</g>
	<g>
	</g>
	<g>
	</g>
	<g>
	</g>
	<g>
	</g>
	<g>
	</g>
	<g>
	</g>
	<g>
	</g>
	<g>
	</g>
	<g>
	</g>
	<g>
	</g>
	<g>
	</g>
	<g>
	</g>
	<g>
	</g>
	<g>
	</g>
	<g>
	</g>
</svg>