<svg version="1.2" xmlns="http://www.w3.org/2000/svg" viewBox="0 0 89 122" width="89" height="122">
	<style>
		.s0 { fill: #69afbe } 
		.s1 { fill: #8be9fd } 
	</style>
	<g id="LT_Pressed">
		<path class="s0" d="m74.75 56.08v-0.67c0.02 0.41 0 0.67 0 0.67z"/>
		<path class="s0" d="m49.72 5.47q0.6-0.48 1.21-0.9l2.32 109.99-53.25 7.24c12.07-116.83 42.96-111.04 49.72-116.33z"/>
		<path class="s1" d="m76.74 0.14c10.83 0.41 12.07 11.44 12.19 15.19v1.23c0 0-2.9 40.71 0 93.09-9.92 2.29-38.53 5.3-38.53 5.3 0 0-0.06-20.91-0.68-50.6-0.82-37.5 1.21-59.78 1.21-59.78 6.41-4.48 13.56-4.88 25.81-4.43z"/>
	</g>
	<g>
	</g>
	<g>
	</g>
	<g>
	</g>
	<g>
	</g>
	<g>
	</g>
	<g>
	</g>
	<g>
	</g>
	<g>
	</g>
	<g>
	</g>
	<g>
	</g>
	<g>
	</g>
	<g>
	</g>
	<g>
	</g>
	<g>
	</g>
	<g>
	</g>
</svg>