<svg version="1.2" xmlns="http://www.w3.org/2000/svg" viewBox="0 0 84 84" width="84" height="84">
	<style>
		.s0 { fill: #bd93f9 } 
		.s1 { fill: #8e6fbb } 
		.s2 { fill: #69afbe } 
		.s3 { fill: #8be9fd } 
		.s4 { fill: #000000 } 
	</style>
	<g>
		<g>
			<path class="s0" d="m83.77 41.7c0 23.02-18.66 41.68-41.7 41.68-23.02 0-41.68-18.66-41.68-41.68 0-23.04 18.66-41.7 41.68-41.7 23.03 0 41.7 18.66 41.7 41.7z"/>
			<path class="s1" d="m42.07 0q-0.02 0-0.03 0-0.01 0-0.01 0-0.02 0-0.03 0 0 0-0.01 0-0.01 0-0.02 0-0.01 0-0.01 0-0.01 0-0.02 0-0.01 0-0.02 0-0.01 0-0.01 0-0.01 0-0.02 0-0.01 0-0.02 0 0 0-0.01 0-0.01 0-0.02 0-0.01 0-0.01 0-0.01 0-0.02 0-0.01 0-0.02 0-0.01 0-0.02 0 0 0-0.01 0-0.01 0-0.02 0-0.01 0-0.01 0-0.01 0-0.02 0-0.01 0-0.02 0-0.01 0-0.02 0 0 0-0.01 0-0.01 0-0.02 0-0.01 0-0.01 0-0.02 0-0.04 0 0 0 0 0-0.02 0-0.03 0-0.01 0-0.01 0-0.01 0-0.02 0-0.01 0-0.02 0 0 0-0.01 0-0.01 0-0.02 0-0.01 0-0.01 0-0.01 0-0.02 0-0.01 0-0.02 0-0.01 0-0.02 0 0 0-0.01 0-0.01 0-0.02 0-0.01 0-0.01 0-0.01 0-0.02 0-0.01 0-0.02 0 0 0-0.01 0-0.01 0-0.02 0-0.01 0-0.02 0 0 0-0.01 0-0.01 0-0.02 0-0.01 0-0.01 0-0.01 0-0.02 0-0.01 0-0.01 0-0.07 0-0.15 0 0 0 0 0-0.01 0-0.03 0 0 0 0 0-0.02 0-0.03 0 0 0 0 0-0.02 0-0.03 0.01 0-0.01-0.01-0.01-0.01 0-0.02 0.01 0 0-0.01 0-0.01 0-0.03 0-0.01 0-0.03 0-0.03 0-0.06 0-0.37 0.01-0.75 0.03l0.95 19.98q0.52-0.03 1.05-0.03v-19.99zm-3.99 0.19q-0.09 0.01-0.17 0.02-0.01 0-0.03 0 0 0-0.01 0-0.01 0-0.02 0-0.01 0-0.01 0-0.01 0-0.02 0-0.01 0-0.02 0.01 0 0-0.01 0-0.01 0-0.02 0h-0.01q-0.84 0.09-1.67 0.2l2.85 19.8q0.51-0.07 1.03-0.12zm-3.96 0.57q-0.04 0.01-0.09 0.01 0 0 0 0-0.01 0.01-0.02 0.01-0.01 0-0.01 0-0.01 0-0.02 0.01-0.01 0-0.01 0-0.01 0-0.02 0-0.01 0-0.01 0-0.01 0-0.02 0.01-0.01 0-0.01 0-0.01 0-0.02 0-0.01 0-0.02 0-0.01 0.01-0.01 0.01-0.01 0-0.02 0-0.01 0-0.01 0-0.01 0.01-0.02 0.01-0.01 0-0.02 0 0 0-0.01 0-0.01 0-0.02 0-0.01 0.01-0.02 0.01 0 0-0.01 0-0.01 0-0.02 0 0 0.01-0.01 0.01-0.01 0-0.02 0 0 0-0.01 0-0.01 0.01-0.03 0.01 0 0 0 0-0.01 0-0.03 0-0.72 0.15-1.44 0.33l4.74 19.43q0.5-0.12 1.01-0.22zm-3.89 0.95q-0.4 0.11-0.8 0.24-0.03 0.01-0.06 0.02-0.03 0.01-0.06 0.02 0 0-0.01 0-0.02 0.01-0.05 0.02-0.46 0.15-0.92 0.31l6.59 18.88q0.49-0.17 0.98-0.31zm-3.77 1.31q-0.93 0.38-1.84 0.8l8.38 18.16q0.47-0.22 0.95-0.42zm-3.63 1.68q-0.89 0.46-1.75 0.97l10.09 17.27q0.45-0.27 0.91-0.5zm-3.45 2.01q-0.84 0.55-1.65 1.13l11.69 16.23q0.43-0.31 0.86-0.59zm-3.24 2.34q-0.79 0.62-1.54 1.28l13.19 15.03q0.39-0.34 0.8-0.67zm-3 2.64q-0.43 0.41-0.84 0.84-0.01 0-0.01 0-0.01 0.01-0.02 0.02 0 0 0 0-0.01 0.01-0.02 0.02 0 0 0 0.01-0.01 0-0.02 0.01 0 0.01-0.01 0.01 0 0.01-0.01 0.01-0.01 0.01-0.01 0.02-0.01 0-0.01 0.01-0.01 0.01-0.02 0.01 0 0.01 0 0.01-0.22 0.22-0.44 0.45l14.56 13.71q0.36-0.38 0.74-0.74zm-2.74 2.91q-0.01 0-0.01 0.01-0.01 0.01-0.01 0.01-0.01 0.01-0.01 0.01-0.01 0.01-0.01 0.02-0.01 0-0.01 0.01-0.01 0.01-0.01 0.01-0.01 0.01-0.01 0.01-0.01 0.01-0.01 0.02-0.01 0-0.01 0.01-0.01 0-0.01 0.01-0.01 0-0.01 0.01-0.01 0.01-0.01 0.01-0.01 0.01-0.01 0.01-0.01 0.01-0.01 0.02h-0.01q-0.56 0.67-1.1 1.36-0.01 0.01-0.02 0.02l15.81 12.26q0.32-0.41 0.66-0.81zm-2.46 3.16q-0.07 0.11-0.15 0.23 0 0-0.01 0 0 0.01-0.01 0.02 0 0-0.01 0.01 0 0 0 0.01-0.48 0.69-0.93 1.39l16.9 10.7q0.28-0.44 0.58-0.87zm-2.13 3.38q-0.23 0.41-0.46 0.82 0 0 0 0 0 0 0 0.01-0.25 0.46-0.49 0.93l17.85 9.03q0.23-0.47 0.49-0.92zm-1.8 3.57q-0.11 0.23-0.2 0.46-0.02 0.02-0.03 0.05-0.01 0.03-0.02 0.06-0.27 0.63-0.52 1.27l18.63 7.27q0.19-0.48 0.4-0.96zm-1.45 3.73q-0.14 0.4-0.26 0.8 0 0.01-0.01 0.01 0 0.01 0 0.02 0 0.01-0.01 0.01 0 0.01 0 0.02 0 0.01-0.01 0.01 0 0.01 0 0.02 0 0.01 0 0.01-0.01 0.01-0.01 0.02 0 0.01 0 0.01-0.01 0.01-0.01 0.02 0 0.01 0 0.01 0 0.01-0.01 0.02 0 0.01 0 0.01 0 0.01-0.01 0.02 0 0.01 0 0.01 0 0.01-0.01 0.03 0 0 0 0 0 0.02-0.01 0.03 0 0 0 0 0 0.02 0 0.03-0.01 0-0.01 0.01 0 0.01 0 0.02 0 0-0.01 0 0 0.01 0 0.03 0 0 0 0-0.01 0.02-0.01 0.03 0 0 0 0-0.01 0.02-0.01 0.03 0 0 0 0 0 0.02-0.01 0.03 0 0 0 0 0 0.02-0.01 0.03 0 0 0 0 0 0.02-0.01 0.03 0 0 0 0 0 0.02-0.01 0.03 0 0 0 0-0.08 0.28-0.16 0.55l19.25 5.44q0.14-0.5 0.31-0.99zm-1.09 3.85q-0.18 0.79-0.33 1.59-0.04 0.18-0.07 0.37l19.68 3.55q0.09-0.51 0.21-1.02zm-0.71 3.94q-0.09 0.64-0.15 1.28 0 0 0 0.01 0 0.01 0 0.02 0 0.01 0 0.01 0 0.01-0.01 0.02 0 0.01 0 0.02 0 0 0 0.01 0 0.01 0 0.02-0.03 0.3-0.05 0.6l19.93 1.65q0.04-0.52 0.11-1.04zm-0.33 3.99q-0.02 0.47-0.02 0.95 0 0.01 0 0.01 0 0.02 0 0.03 0 0 0 0.01 0 0.02 0 0.05 0 0.01 0 0.01 0 0.01 0 0.03 0 0.01 0 0.01 0 0.02 0 0.04 0 0.01 0 0.02 0 0.01 0 0.02 0 0.01 0 0.02 0 0.01 0 0.02 0 0.02 0 0.03 0 0.01 0 0.02 0 0.02 0 0.03 0 0.01 0 0.02 0 0.01 0 0.03 0 0 0 0.01 0 0.02 0 0.04 0 0.01 0 0.01 0 0.02 0 0.03 0 0.01 0 0.02 0 0.02 0 0.04 0 0.01 0 0.03 0 0.01 0 0.02 0 0.01 0 0.01 0 0.02 0 0.03 0 0.2 0 0.41l20-0.24v-0.26q0-0.4 0.01-0.8zm20.01 2.82l-19.96 1.18q0.05 0.85 0.13 1.7 0 0 0 0 0 0.02 0.01 0.03 0 0 0 0.01 0 0.01 0 0.02 0 0.01 0 0.01 0 0.01 0 0.02 0 0.01 0 0.02 0 0 0 0 0.01 0.09 0.02 0.18l19.89-2.13q-0.05-0.52-0.09-1.04zm0.23 2.08l-19.76 3.08q0 0.02 0 0.03 0 0.01 0 0.01 0 0.01 0 0.02 0.01 0.01 0.01 0.02 0 0.01 0 0.01 0 0.02 0 0.03 0 0 0 0 0.13 0.79 0.28 1.57 0 0 0 0 0.01 0.01 0.01 0.02 0 0.01 0 0.02 0 0.01 0 0.01 0.01 0.01 0.01 0.02 0 0.01 0 0.01 0 0.01 0 0.03 0 0 0 0 0.02 0.08 0.04 0.17l19.59-4.03q-0.1-0.51-0.18-1.02zm0.41 2.02l-19.37 4.97q0.25 0.98 0.54 1.93l19.11-5.9q-0.15-0.5-0.28-1zm0.61 1.98l-18.8 6.81q0.34 0.95 0.73 1.87l18.45-7.72q-0.2-0.48-0.38-0.96zm0.8 1.9l-18.06 8.6q0.06 0.11 0.11 0.22 0 0 0 0.01 0.01 0 0.01 0.01 0 0.01 0.01 0.02 0 0 0 0 0.27 0.55 0.55 1.1 0.01 0.01 0.01 0.02 0 0.01 0.01 0.01 0 0.01 0.01 0.02 0 0 0 0.01 0.01 0.01 0.01 0.01 0 0.01 0.01 0.02 0 0.01 0 0.01 0.09 0.16 0.17 0.33l17.63-9.46q-0.25-0.46-0.47-0.93zm0.98 1.83l-17.15 10.3q0.15 0.24 0.3 0.48 0 0.01 0.01 0.02 0 0 0 0.01 0.01 0 0.01 0.01 0.01 0.01 0.01 0.02 0 0 0 0 0.36 0.58 0.74 1.15l16.64-11.11q-0.29-0.43-0.56-0.88zm1.16 1.73l-16.09 11.89q0.12 0.15 0.23 0.3 0.01 0.01 0.02 0.03 0.01 0.01 0.01 0.02 0.01 0 0.01 0 0.01 0.01 0.01 0.02 0 0.01 0.01 0.01 0 0.01 0.01 0.02 0 0 0.01 0 0 0.01 0.01 0.02 0 0.01 0.01 0.01 0 0.01 0.01 0.02 0 0 0.01 0.01 0 0 0.01 0.01 0 0.01 0 0.01 0.01 0.01 0.01 0.01 0.01 0.01 0.01 0.02 0.01 0 0.01 0.01 0.01 0.01 0.01 0.01 0.01 0.01 0.01 0.01 0.01 0.01 0.01 0.02 0.01 0 0.01 0.01 0.01 0.01 0.01 0.02 0.01 0 0.01 0 0.01 0.01 0.01 0.02 0.01 0 0.01 0.01 0.01 0.01 0.01 0.02 0.01 0 0.01 0 0.01 0.01 0.01 0.02 0 0 0 0.01 0.01 0.01 0.02 0.02 0 0 0 0 0.35 0.45 0.71 0.89l15.5-12.64q-0.33-0.41-0.64-0.83zm1.32 1.62l-14.88 13.37q0.67 0.74 1.37 1.46l14.23-14.07q-0.37-0.37-0.72-0.76zm1.47 1.49l-13.54 14.72q0.38 0.35 0.76 0.69 0.01 0 0.01 0 0 0.01 0.01 0.01 0.01 0.01 0.01 0.01 0.01 0 0.01 0.01 0.01 0.01 0.02 0.01 0 0 0 0.01 0.01 0 0.02 0.01 0.33 0.29 0.67 0.57l12.82-15.35q-0.41-0.33-0.79-0.69zm1.6 1.34l-12.07 15.95q0.46 0.34 0.93 0.68 0.35 0.25 0.69 0.49l11.3-16.51q-0.43-0.3-0.85-0.61zm1.72 1.18l-10.49 17.02q0.05 0.04 0.11 0.07 0 0 0 0 0.01 0.01 0.02 0.01 0 0 0.01 0.01 0 0 0.01 0.01 0.01 0 0.02 0.01 0 0 0 0 0.75 0.46 1.52 0.88 0 0 0.01 0 0.01 0.01 0.02 0.01 0 0.01 0.01 0.01 0 0 0 0l9.66-17.51q-0.45-0.25-0.9-0.52zm1.82 1l-8.81 17.96q0.17 0.08 0.34 0.16 0.01 0.01 0.02 0.01 0.01 0 0.01 0 0.01 0.01 0.02 0.01 0.01 0.01 0.01 0.01 0.01 0 0.02 0.01 0 0 0.01 0 0.01 0.01 0.01 0.01 0.01 0 0.02 0.01 0.01 0 0.01 0 0.01 0.01 0.02 0.01 0.01 0 0.01 0.01 0.01 0 0.02 0.01 0 0 0.01 0 0.01 0 0.02 0.01 0 0 0 0 0.63 0.3 1.27 0.57l7.93-18.36q-0.47-0.2-0.94-0.43zm1.9 0.82l-7.04 18.72q0.94 0.35 1.89 0.66l6.13-19.04q-0.5-0.16-0.98-0.34zm1.97 0.63l-5.2 19.32q0.12 0.03 0.24 0.06 0.01 0 0.03 0.01 0 0 0 0 0.01 0 0.03 0 0 0.01 0.01 0.01 0.01 0 0.02 0 0 0 0.01 0 0.01 0.01 0.01 0.01 0.01 0 0.02 0 0.01 0 0.01 0.01 0.02 0 0.03 0 0 0 0 0 0.02 0.01 0.03 0.01 0 0 0 0 0.75 0.19 1.5 0.36l4.26-19.54q-0.5-0.11-1-0.25zm2.02 0.44l-3.31 19.73q0.75 0.12 1.51 0.22 0.23 0.04 0.47 0.06l2.36-19.86q-0.52-0.06-1.03-0.15zm2.07 0.25l-1.41 19.95q0.2 0.01 0.4 0.03 0.01 0 0.02 0 0 0 0.01 0 0.02 0 0.03 0 0 0 0 0 0.02 0 0.03 0 0 0 0 0 0.48 0.03 0.96 0.05 0.01 0 0.01 0 0.01-0.01 0.02 0 0.01 0 0.02 0 0 0 0.01 0 0.01 0 0.02 0 0.01 0 0.01 0 0.01 0 0.03 0 0 0 0 0 0.21 0 0.42 0.01l0.47-20q-0.53 0-1.05-0.04zm3.16 0q-0.52 0.04-1.05 0.05l0.47 19.99q0.29 0 0.57-0.01 0.03 0 0.05-0.01 0.01 0 0.01 0 0.02 0 0.03 0 0 0 0 0 0.02 0 0.03 0 0.6-0.02 1.19-0.06 0 0 0 0 0.03 0 0.06-0.01 0 0 0 0 0.02 0 0.03 0 0.02 0 0.03 0zm2.07-0.25q-0.51 0.09-1.03 0.15l2.37 19.86q0.93-0.11 1.84-0.26 0 0 0 0 0.01 0 0.03 0 0-0.01 0-0.01 0.02 0 0.03 0 0 0 0.01 0 0.01 0 0.02 0 0-0.01 0.01-0.01 0.01 0 0.02 0 0.01 0 0.01 0 0.01 0 0.01 0zm2.03-0.44q-0.5 0.13-1.01 0.24l4.27 19.54q0.11-0.02 0.22-0.05 0 0 0 0 0.02 0 0.03 0 0-0.01 0.01-0.01 0.01 0 0.02 0 0.01 0 0.01 0 0.01-0.01 0.02-0.01 0.01 0 0.02 0 0 0 0.01 0 0.01-0.01 0.02-0.01 0 0 0.01 0 0.01 0 0.02-0.01 0 0 0.01 0 0.01 0 0.02 0 0 0 0.01 0 0.38-0.09 0.75-0.19 0.02 0 0.03 0 0 0 0.01 0 0.01-0.01 0.02-0.01 0 0 0.01 0 0.01 0 0.02-0.01 0 0 0.01 0 0.01 0 0.02 0 0 0 0.01 0 0.01-0.01 0.02-0.01 0 0 0.01 0 0.01-0.01 0.02-0.01 0 0 0.01 0 0.01 0 0.02-0.01 0 0 0.01 0 0.01 0 0.02 0 0-0.01 0.01 0 0.01-0.01 0.02-0.01 0.01 0 0.01 0 0.01 0 0.02-0.01 0.01 0 0.01 0 0.01 0 0.02-0.01 0 0 0.01 0 0.01 0 0.02 0h0.01q0.19-0.05 0.39-0.11zm1.96-0.63q-0.48 0.18-0.97 0.34l6.13 19.04q0.46-0.15 0.92-0.31 0 0 0 0 0.01-0.01 0.03-0.01 0 0 0 0 0.01-0.01 0.02-0.01 0.01 0 0.01 0 0.01-0.01 0.02-0.01 0.01 0 0.01-0.01 0.01 0 0.02 0 0.01 0 0.02-0.01 0 0 0.01 0 0.01 0 0.02-0.01 0 0 0.01 0 0.01 0 0.02-0.01 0 0 0 0 0.39-0.14 0.78-0.28zm1.9-0.82q-0.47 0.22-0.94 0.43l7.93 18.36q0.53-0.23 1.05-0.47 0 0 0 0 0.01-0.01 0.02-0.01 0.01-0.01 0.01-0.01 0.01 0 0.02-0.01 0.01 0 0.01 0 0.01 0 0.02-0.01 0 0 0.01 0 0.01-0.01 0.01-0.01 0.01 0 0.02-0.01 0 0 0.01 0 0.01-0.01 0.02-0.01 0 0 0 0 0.31-0.15 0.62-0.3zm1.82-1q-0.45 0.27-0.9 0.52l9.67 17.51q0.09-0.05 0.18-0.1 0 0 0 0 0.01-0.01 0.02-0.01 0.01-0.01 0.01-0.01 0.01 0 0.02-0.01 0 0 0.01 0 0-0.01 0.01-0.01 0.01-0.01 0.02-0.01 0 0 0.01-0.01 0.01 0 0.01-0.01 0.01 0 0.01 0 0.01 0 0.02-0.01 0 0 0.01 0 0.01-0.01 0.02-0.02 0.7-0.39 1.37-0.81zm1.72-1.18q-0.41 0.32-0.84 0.61l11.3 16.5q0.38-0.25 0.75-0.52 0 0 0 0 0.01-0.01 0.02-0.02 0 0 0.01 0 0.01-0.01 0.02-0.02 0 0 0 0 0.01-0.01 0.02-0.02 0.01 0 0.01 0 0.01-0.01 0.02-0.01 0-0.01 0.01-0.01 0-0.01 0.01-0.01 0.01-0.01 0.01-0.01 0.01 0 0.01-0.01 0.01 0 0.02-0.01 0 0 0.01-0.01 0.01 0 0.01-0.01 0.01 0 0.01 0 0.01-0.01 0.02-0.02 0.01 0 0.01 0 0.01-0.01 0.02-0.02 0 0 0 0 0.01-0.01 0.02-0.02 0.01 0 0.01 0 0.3-0.22 0.6-0.44zm1.6-1.34q-0.38 0.35-0.79 0.69l12.83 15.34q0 0 0.01-0.01 0 0 0 0 0.01-0.01 0.02-0.02 0.01 0 0.01 0 0.01-0.01 0.02-0.02 0 0 0 0 0.01-0.01 0.02-0.02 0 0 0.01 0 0.01-0.01 0.01-0.02 0.01 0 0.01 0 0.01-0.01 0.02-0.02 0 0 0.01 0 0-0.01 0.01-0.02 0.01 0 0.01-0.01 0.01 0 0.01-0.01 0.01 0 0.02-0.01 0 0 0.01-0.01 0 0 0.01-0.01 0.01 0 0.01 0 0.01-0.01 0.02-0.02 0 0 0.01 0 0-0.01 0.01-0.02 0 0 0.01 0 0.01-0.01 0.01-0.02 0.01 0 0.01 0 0.01-0.01 0.02-0.02 0 0 0 0 0.01-0.01 0.02-0.02 0 0 0.01 0 0.01-0.01 0.02-0.02 0.01-0.01 0.02-0.02 0.5-0.43 0.98-0.87 0.01 0 0.01 0 0.01-0.01 0.02-0.02 0 0 0-0.01 0.01 0 0.02-0.01 0 0 0.01-0.01 0-0.01 0.01-0.01 0.01-0.01 0.01-0.01 0.01-0.01 0.01-0.01 0.01-0.01 0.02-0.02 0 0 0 0 0.01-0.01 0.03-0.02 0 0 0-0.01zm1.47-1.49q-0.35 0.39-0.71 0.77l14.22 14.05q0.01 0 0.01 0 0.01-0.01 0.01-0.02 0 0 0.01 0 0.47-0.48 0.92-0.97 0 0 0 0 0.01-0.01 0.02-0.02 0.01-0.01 0.01-0.01 0.01-0.01 0.01-0.01 0.01-0.01 0.01-0.02 0.01 0 0.01-0.01 0.01 0 0.02-0.01 0 0 0-0.01 0.01-0.01 0.02-0.02 0.17-0.18 0.32-0.35zm1.33-1.62q-0.31 0.42-0.65 0.82l15.51 12.64q0 0 0-0.01 0.01-0.01 0.01-0.01 0.01-0.01 0.01-0.01 0.01-0.01 0.01-0.02 0.01 0 0.01-0.01 0.01-0.01 0.01-0.01 0.01-0.01 0.01-0.02 0.01 0 0.01-0.01 0.01 0 0.02-0.01 0-0.01 0-0.01 0.01-0.01 0.02-0.02 0 0 0 0 0.01-0.01 0.02-0.02 0-0.01 0-0.01 0.01-0.01 0.02-0.02 0.31-0.39 0.62-0.79 0.01-0.01 0.01-0.02 0.01 0 0.01 0 0-0.01 0.01-0.02 0 0 0.01-0.01 0 0 0.01-0.01 0-0.01 0-0.01 0.01-0.01 0.01-0.01 0.01-0.01 0.01-0.02 0.01 0 0.01-0.01 0.01 0 0.01-0.02 0 0 0 0 0.18-0.23 0.36-0.47zm1.16-1.73q-0.27 0.44-0.56 0.87l16.64 11.1q0.07-0.1 0.14-0.21 0 0 0.01-0.02 0 0 0 0 0.46-0.7 0.9-1.43 0.01-0.01 0.01-0.02 0 0 0-0.01zm0.98-1.82q-0.22 0.47-0.46 0.92l17.62 9.45q0.14-0.25 0.27-0.51 0.22-0.41 0.42-0.83 0 0 0 0 0.01-0.01 0.01-0.02 0.01-0.01 0.01-0.01 0-0.01 0.01-0.02 0-0.01 0-0.01 0.01-0.01 0.01-0.02 0-0.01 0.01-0.02 0 0 0 0 0.08-0.17 0.16-0.34zm0.8-1.91q-0.17 0.49-0.37 0.96l18.45 7.72q0.14-0.35 0.28-0.7 0 0 0 0 0.01-0.01 0.01-0.02 0.01-0.01 0.01-0.01 0-0.01 0-0.02 0.01-0.01 0.01-0.02 0 0 0.01-0.01 0-0.01 0.01-0.03 0 0 0 0 0.2-0.52 0.4-1.06zm0.61-1.97q-0.13 0.5-0.28 0.99l19.11 5.9q0.06-0.21 0.12-0.42 0.01-0.01 0.01-0.03 0 0 0 0 0.01-0.01 0.01-0.02 0-0.01 0-0.01 0-0.01 0.01-0.02 0-0.01 0-0.01 0-0.01 0.01-0.02 0-0.01 0-0.01 0-0.01 0.01-0.02 0-0.01 0-0.01 0-0.01 0-0.02 0-0.01 0-0.01 0.01-0.01 0.01-0.03 0 0 0 0 0.01-0.01 0.01-0.03 0 0 0 0 0.01-0.01 0.01-0.03 0-0.01 0.01-0.03 0.17-0.6 0.33-1.2zm0.41-2.03q-0.08 0.51-0.18 1.02l19.59 4.02q0.18-0.85 0.32-1.72 0.02-0.12 0.03-0.25zm0.23-2.07q-0.04 0.52-0.09 1.04l19.89 2.12q0.03-0.35 0.07-0.7 0 0 0 0 0-0.02 0-0.03 0 0 0-0.01 0-0.01 0-0.02 0 0 0-0.01 0-0.01 0-0.01 0.05-0.57 0.09-1.15 0-0.03 0-0.06zm20.01-2.83l-19.99 0.72q0.02 0.4 0.02 0.8v0.26l20 0.23q0-0.2 0-0.4 0 0 0 0 0-0.01 0-0.02 0-0.01 0-0.02 0-0.01 0-0.02 0-0.01 0-0.03 0-0.02 0-0.04 0-0.01 0-0.01 0-0.02 0-0.03 0-0.01 0-0.02 0-0.02 0-0.04 0 0 0-0.01 0-0.01 0-0.03 0-0.01 0-0.02 0-0.01 0-0.03 0-0.01 0-0.02 0-0.01 0-0.03 0 0 0-0.02 0-0.01 0-0.02 0-0.02 0-0.04 0 0 0-0.01 0-0.01 0-0.03 0 0 0-0.01 0-0.05 0-0.09 0 0 0-0.01 0-0.01 0-0.03 0 0 0 0 0-0.22-0.01-0.44 0-0.04 0-0.09 0 0 0-0.01 0-0.01 0-0.02 0-0.01 0-0.02 0-0.02 0-0.03 0-0.01 0-0.03 0-0.01 0-0.02 0-0.01-0.01-0.03 0 0 0-0.01-0.01-0.13-0.01-0.28zm-0.33-3.98l-19.83 2.61q0.07 0.52 0.11 1.04l19.93-1.66q-0.02-0.24-0.04-0.47 0 0 0 0 0-0.01 0-0.03 0 0 0-0.01 0-0.01-0.01-0.02 0.01 0 0-0.01 0-0.01 0-0.02 0-0.01 0-0.02 0-0.01 0-0.01 0-0.02 0-0.03-0.07-0.69-0.16-1.37zm-0.71-3.93l-19.49 4.5q0.12 0.5 0.21 1.01l19.68-3.56q-0.09-0.47-0.18-0.95-0.01-0.01-0.01-0.02 0-0.01 0-0.01 0-0.01-0.01-0.02 0-0.01 0-0.01 0-0.01 0-0.02 0-0.01 0-0.02-0.01 0-0.01-0.01 0-0.01 0-0.02 0 0 0-0.01-0.01-0.01-0.01-0.02 0-0.01 0-0.01 0-0.01 0-0.02 0-0.01-0.01-0.01 0-0.01 0-0.03 0 0 0 0 0-0.02-0.01-0.03 0 0 0 0 0-0.02 0-0.03 0 0 0 0-0.01-0.02-0.01-0.03 0 0 0 0 0-0.02-0.01-0.03 0 0 0 0-0.03-0.16-0.07-0.32 0 0 0 0 0-0.02 0-0.03-0.01-0.01-0.01-0.03 0 0 0 0 0-0.01-0.01-0.02 0.01-0.01 0-0.01-0.03-0.12-0.05-0.24zm-1.09-3.85l-18.96 6.36q0.16 0.49 0.3 0.99l19.25-5.44q0 0 0-0.01 0-0.01-0.01-0.01 0-0.01 0-0.02 0-0.01-0.01-0.01 0-0.01 0-0.02 0-0.01 0-0.01-0.01-0.01-0.01-0.03-0.21-0.74-0.45-1.46 0-0.01 0-0.01 0-0.01-0.01-0.02 0-0.01 0-0.01 0-0.01 0-0.01-0.05-0.15-0.1-0.29zm-1.46-3.73l-18.25 8.16q0.21 0.48 0.39 0.96l18.64-7.27q-0.37-0.94-0.78-1.85zm-1.8-3.57l-17.39 9.88q0.25 0.46 0.49 0.92l17.84-9.03q-0.39-0.78-0.82-1.55-0.01-0.01-0.01-0.02 0 0-0.01-0.01 0-0.01-0.01-0.02 0 0 0 0-0.01-0.01-0.01-0.03 0 0-0.01 0 0-0.01-0.01-0.02 0-0.01 0-0.01-0.01-0.01-0.01-0.02-0.01 0-0.01-0.01 0-0.01-0.01-0.02 0 0-0.01-0.01 0-0.01 0-0.01-0.01-0.01-0.01-0.02-0.01-0.01-0.01-0.01 0 0 0-0.01zm-2.14-3.37l-16.37 11.5q0.3 0.42 0.58 0.86l16.9-10.7q-0.06-0.1-0.13-0.2 0-0.01-0.01-0.01 0-0.01 0-0.01-0.01-0.01-0.01-0.02h-0.01q-0.32-0.5-0.65-0.99-0.01-0.01-0.01-0.01 0-0.01-0.01-0.02 0 0-0.01-0.01 0-0.01-0.01-0.01-0.13-0.19-0.26-0.38zm-2.45-3.16l-15.2 13.01q0.35 0.39 0.67 0.81l15.79-12.27q-0.06-0.08-0.11-0.15-0.01-0.01-0.02-0.02 0 0-0.01-0.01 0-0.01-0.01-0.02 0 0-0.01 0 0-0.01-0.01-0.02 0 0-0.01-0.01 0-0.01-0.01-0.01 0-0.01-0.01-0.02 0 0-0.01-0.01 0 0-0.01-0.01 0-0.01-0.01-0.01 0-0.01-0.01-0.02 0 0 0-0.01-0.01 0-0.02-0.01 0-0.01 0-0.01-0.01-0.01-0.02-0.02 0 0 0 0-0.01-0.01-0.02-0.02 0-0.01 0-0.01-0.01-0.01-0.02-0.02 0 0 0 0-0.01-0.01-0.02-0.02 0 0 0-0.01-0.01-0.01-0.02-0.02 0 0 0 0-0.01-0.01-0.02-0.02 0 0 0 0-0.01-0.01-0.02-0.03 0 0 0 0-0.01-0.01-0.02-0.02 0 0 0 0-0.01-0.01-0.02-0.02 0 0 0-0.01-0.01-0.01-0.01-0.02-0.01 0-0.01 0-0.01-0.01-0.01-0.02-0.01 0-0.01-0.01-0.01-0.01-0.01-0.02-0.01 0-0.01 0 0-0.01-0.01-0.02 0 0-0.01-0.01 0 0-0.01-0.01 0-0.01-0.01-0.01 0-0.01-0.01-0.02 0 0-0.01-0.01 0 0-0.01-0.01 0-0.01-0.01-0.01 0-0.01-0.01-0.02 0 0-0.01-0.01 0 0-0.01-0.01 0-0.01-0.01-0.01 0-0.01-0.01-0.01 0-0.01-0.01-0.02 0 0-0.01-0.01 0 0-0.01-0.01 0-0.01-0.01-0.01 0-0.01-0.01-0.02 0 0-0.01-0.01 0 0-0.01-0.01 0-0.01 0-0.01-0.01-0.01-0.02-0.02 0 0 0 0-0.01-0.01-0.02-0.02 0 0 0-0.01-0.01-0.01-0.02-0.02 0 0 0 0-0.01-0.01-0.02-0.02 0 0 0 0-0.01-0.01-0.02-0.02 0-0.01 0-0.01-0.01-0.01-0.02-0.02 0 0 0 0-0.01-0.01-0.02-0.02 0 0 0-0.01-0.01-0.01-0.02-0.02 0 0 0 0-0.01-0.01-0.02-0.02 0 0 0 0-0.01-0.01-0.02-0.02 0-0.01 0-0.01-0.01-0.01-0.02-0.02 0 0 0 0-0.01-0.01-0.02-0.02 0 0 0-0.01-0.01-0.01-0.02-0.02 0 0 0 0-0.01-0.01-0.02-0.02 0 0 0-0.01-0.01 0-0.02-0.01 0-0.01 0-0.01-0.01-0.01-0.02-0.02 0 0 0 0-0.01-0.01-0.02-0.02 0 0 0-0.01-0.01-0.01-0.02-0.01 0-0.01-0.01-0.01 0-0.01 0-0.02-0.01 0-0.02-0.01 0 0 0-0.01-0.01-0.01-0.02-0.02 0 0 0 0-0.01-0.01-0.02-0.02 0 0 0 0-0.07-0.07-0.13-0.15zm-2.75-2.91l-13.88 14.4q0.38 0.36 0.74 0.74l14.55-13.72q0 0 0 0-0.69-0.73-1.41-1.42zm-3-2.64l-12.45 15.66q0.41 0.32 0.8 0.67l13.18-15.04q-0.12-0.11-0.23-0.21-0.01 0-0.01 0-0.01-0.01-0.02-0.02 0 0-0.01-0.01 0 0-0.01-0.01-0.61-0.53-1.25-1.04zm-3.25-2.33l-10.89 16.77q0.43 0.28 0.86 0.59l11.68-16.23q-0.22-0.17-0.45-0.33 0 0-0.01 0 0 0-0.01-0.01-0.01 0-0.01-0.01-0.01 0-0.01 0-0.01-0.01-0.02-0.01 0 0 0 0-0.25-0.18-0.52-0.36 0 0 0 0-0.01-0.01-0.02-0.01-0.01-0.01-0.01-0.01-0.01-0.01-0.02-0.01 0-0.01-0.01-0.01-0.01-0.01-0.01-0.01-0.27-0.18-0.55-0.36zm-3.45-2.02l-9.24 17.74q0.46 0.24 0.91 0.5l10.08-17.27q-0.22-0.13-0.43-0.25-0.03-0.02-0.06-0.03-0.02-0.02-0.05-0.03-0.6-0.34-1.21-0.66zm-3.63-1.67l-7.49 18.54q0.48 0.2 0.95 0.41l8.37-18.16q0 0-0.01 0-0.01-0.01-0.01-0.01-0.01 0-0.02-0.01 0 0-0.01 0-0.01-0.01-0.02-0.01 0 0-0.01-0.01-0.01 0-0.02 0 0-0.01-0.01-0.01-0.01 0-0.02-0.01 0 0-0.01 0 0 0-0.01-0.01-0.01 0-0.02 0 0-0.01-0.01-0.01-0.01 0-0.02-0.01 0 0-0.01 0-0.01-0.01-0.01-0.01-0.01 0-0.02-0.01-0.01 0-0.01 0-0.01 0-0.01-0.01-0.01 0-0.02-0.01-0.01 0-0.01 0-0.01 0-0.02-0.01-0.75-0.34-1.52-0.65zm-3.78-1.32l-5.66 19.18q0.49 0.15 0.98 0.32l6.58-18.89q-0.66-0.23-1.33-0.44 0 0 0 0-0.02 0-0.03-0.01 0 0-0.01 0-0.01 0-0.02 0-0.01-0.01-0.01-0.01-0.01 0-0.02 0-0.01-0.01-0.02-0.01-0.01 0-0.01 0-0.01 0-0.03-0.01 0 0 0 0-0.21-0.07-0.42-0.13zm-3.88-0.94l-3.79 19.63q0.51 0.1 1.01 0.22l4.73-19.43q0 0 0 0-0.01 0-0.02 0-0.01-0.01-0.02-0.01 0 0-0.01 0-0.01 0-0.02-0.01 0 0-0.01 0-0.01 0-0.02 0 0 0-0.01-0.01-0.01 0-0.02 0-0.01 0-0.01 0-0.01 0-0.02-0.01-0.01 0-0.01 0-0.01 0-0.03-0.01 0 0 0 0-0.02 0-0.03 0-0.41-0.1-0.82-0.19 0 0 0 0-0.03 0-0.06-0.01 0 0-0.01 0-0.01 0-0.03-0.01 0 0 0 0-0.01 0-0.02 0-0.01 0-0.01 0-0.01-0.01-0.03-0.01 0 0 0 0-0.01 0-0.02 0-0.01-0.01-0.01-0.01-0.01 0-0.02 0-0.01 0-0.02 0 0 0-0.01 0-0.33-0.08-0.66-0.14zm-3.96-0.57l-1.89 19.91q0.52 0.05 1.04 0.12l2.84-19.8q-0.26-0.03-0.51-0.06-0.01-0.01-0.03-0.01 0 0-0.01 0-0.01 0-0.02 0 0 0-0.01 0-0.01 0-0.02-0.01-0.01 0-0.02 0 0 0-0.01 0-0.01 0-0.02 0 0 0 0 0-0.02 0-0.03-0.01 0 0 0 0-0.02 0-0.03 0-0.45-0.06-0.9-0.1-0.01 0-0.02 0-0.01 0-0.02-0.01 0 0-0.01 0-0.01 0-0.02 0 0 0-0.01 0-0.01 0-0.02 0 0 0-0.01 0-0.14-0.02-0.27-0.03zm-3.99-0.19v20q0.53 0 1.05 0.02l0.94-19.97q-0.6-0.03-1.21-0.04-0.01 0-0.03 0 0 0 0 0-0.01 0-0.03 0 0 0 0 0-0.02 0-0.03 0 0 0-0.01 0-0.01 0-0.02 0 0 0-0.01 0-0.01 0-0.02 0-0.01 0-0.01 0-0.01 0-0.02 0-0.01 0-0.01 0-0.01 0-0.03 0 0 0 0 0-0.02 0-0.03 0 0 0-0.01 0-0.01 0-0.02 0 0 0-0.01 0-0.01 0-0.02 0 0 0 0 0-0.03 0-0.05 0-0.01 0-0.01 0-0.01 0-0.02 0-0.01 0-0.02 0 0 0-0.01 0-0.01 0-0.02 0-0.01 0-0.01 0-0.01 0-0.02 0-0.01 0-0.02 0 0 0-0.01 0-0.01 0-0.02 0-0.01 0-0.02 0 0 0-0.01 0-0.01 0-0.02 0-0.01 0-0.01 0-0.01 0-0.02 0-0.01 0-0.02 0-0.01 0-0.02 0 0 0-0.01 0-0.01 0-0.02 0-0.01 0-0.01 0-0.01 0-0.02 0-0.01 0-0.02 0-0.01 0-0.02 0 0 0-0.01 0-0.02-0.01-0.03-0.01z"/>
		</g>
		<g>
			<path class="s1" d="m42.07 0c-23.02 0-41.69 18.66-41.69 41.7 0 23.02 18.67 41.68 41.69 41.68 23.04 0 41.7-18.66 41.7-41.68 0-23.04-18.67-41.7-41.7-41.7zm0 2c21.89 0 39.7 17.81 39.7 39.7 0 21.88-17.81 39.68-39.7 39.68-21.88 0-39.69-17.8-39.69-39.68 0.01-21.89 17.81-39.7 39.69-39.7z"/>
		</g>
		<g style="opacity: .06">
			<path class="s2" d="m78.09 41.7c0 19.88-16.13 36.01-36.02 36.01-19.88 0-36.01-16.13-36.01-36.01 0-19.89 16.13-36.02 36.01-36.02 19.9 0 36.02 16.13 36.02 36.02z"/>
		</g>
		<g>
			<path class="s1" d="m42.07 69.83c-15.51 0-28.12-12.62-28.12-28.13 0-15.5 12.61-28.12 28.12-28.12 15.51 0 28.13 12.62 28.13 28.12 0 15.51-12.62 28.13-28.13 28.13z"/>
			<path class="s0" d="m42.07 10.58c-17.2 0-31.12 13.93-31.12 31.12 0 17.19 13.93 31.13 31.12 31.13 17.2 0 31.13-13.94 31.13-31.13 0-17.19-13.93-31.12-31.13-31.12zm0 6c13.85 0 25.13 11.27 25.13 25.12 0 13.86-11.27 25.13-25.13 25.13-13.85 0-25.12-11.27-25.12-25.13 0-13.85 11.27-25.12 25.12-25.12z"/>
		</g>
	</g>
	<g id="LS_pressed">
		<g>
			<path class="s3" d="m-1.61 41.7c0 23.02-18.67 41.68-41.7 41.68-23.03 0-41.69-18.66-41.69-41.68 0-23.04 18.66-41.7 41.69-41.7 23.03 0 41.7 18.66 41.7 41.7z"/>
			<path class="s2" d="m-43.31 0q-0.02 0-0.04 0 0 0-0.01 0-0.01 0-0.02 0-0.01 0-0.01 0-0.01 0-0.02 0-0.01 0-0.02 0-0.01 0-0.02 0 0 0-0.01 0-0.01 0-0.02 0-0.01 0-0.01 0-0.01 0-0.02 0-0.01 0-0.02 0-0.01 0-0.02 0 0 0-0.01 0-0.01 0-0.02 0-0.01 0-0.01 0-0.01 0-0.02 0-0.01 0-0.02 0 0 0-0.01 0-0.01 0-0.02 0-0.01 0-0.02 0 0 0-0.01 0-0.01 0-0.02 0-0.01 0-0.02 0-0.01 0-0.02 0 0 0-0.01 0-0.01 0-0.03 0 0 0-0.01 0-0.01 0-0.02 0-0.01 0-0.02 0-0.01 0-0.01 0-0.01 0-0.02 0-0.01 0-0.02 0-0.01 0-0.02 0 0 0-0.01 0-0.01 0-0.02 0-0.01 0-0.01 0-0.01 0-0.02 0-0.01 0-0.02 0 0 0-0.01 0-0.01 0-0.02 0-0.01 0-0.02 0 0 0-0.01 0-0.01 0-0.02 0-0.01 0-0.01 0-0.01 0-0.02 0-0.01 0-0.01 0-0.02 0-0.03 0 0 0 0 0-0.02 0-0.03 0 0 0 0 0-0.08 0-0.15 0 0 0-0.01 0-0.01 0-0.02 0 0 0-0.01 0-0.01 0-0.02 0-0.01 0-0.01 0-0.01 0-0.03 0.01 0-0.01 0-0.01-0.01 0-0.03 0.01 0 0 0 0-0.02 0-0.03 0-0.02 0-0.03 0-0.03 0-0.06 0-0.38 0.01-0.75 0.03l0.94 19.98q0.54-0.02 1.07-0.02zm-4 0.19q-0.08 0.01-0.17 0.02-0.01 0-0.03 0 0 0-0.01 0-0.01 0-0.02 0 0 0-0.01 0-0.01 0-0.02 0-0.01 0-0.02 0.01 0 0-0.01 0-0.01 0-0.02 0-0.84 0.09-1.68 0.2l2.85 19.8q0.51-0.07 1.03-0.12zm-3.95 0.57q-0.05 0.01-0.09 0.02-0.01 0-0.01 0-0.01 0-0.02 0 0 0-0.01 0-0.01 0-0.02 0.01-0.01 0-0.01 0-0.01 0-0.02 0-0.01 0-0.01 0-0.01 0-0.02 0.01-0.01 0-0.01 0-0.01 0-0.02 0-0.01 0-0.02 0.01 0 0-0.01 0-0.01 0-0.02 0 0 0-0.01 0-0.01 0.01-0.02 0.01-0.01 0-0.01 0-0.01 0-0.02 0-0.01 0-0.01 0.01-0.01 0-0.03 0 0 0-0.01 0-0.01 0-0.02 0.01 0 0-0.01 0-0.01 0-0.02 0 0 0-0.01 0-0.01 0.01-0.02 0.01-0.01 0-0.01 0-0.01 0-0.03 0-0.72 0.15-1.44 0.33l4.74 19.43q0.5-0.12 1.01-0.22zm-3.89 0.95q-0.4 0.11-0.8 0.24-0.03 0.01-0.06 0.02-0.03 0.01-0.06 0.02 0 0 0 0-0.03 0.01-0.05 0.02-0.47 0.15-0.93 0.31l6.59 18.88q0.49-0.17 0.98-0.31zm-3.77 1.31q-0.93 0.38-1.84 0.8l8.38 18.16q0.47-0.22 0.95-0.42zm-3.63 1.68q-0.89 0.46-1.75 0.97l10.09 17.27q0.45-0.27 0.91-0.5zm-3.45 2.01q-0.84 0.55-1.65 1.13l11.69 16.23q0.43-0.31 0.86-0.59zm-3.24 2.34q-0.78 0.62-1.54 1.28l13.19 15.03q0.4-0.34 0.81-0.67zm-3.01 2.64q-0.43 0.41-0.84 0.84 0 0 0 0-0.01 0.01-0.02 0.02-0.01 0-0.01 0-0.01 0.01-0.01 0.02-0.01 0-0.01 0.01-0.01 0-0.02 0.01 0 0.01-0.01 0.01 0 0.01-0.01 0.01 0 0.01-0.01 0.02 0 0-0.01 0.01-0.01 0-0.02 0.01 0 0 0 0.01-0.22 0.22-0.44 0.45l14.57 13.71q0.35-0.38 0.73-0.74zm-2.74 2.91q0 0-0.01 0.01 0 0-0.01 0.01 0 0.01-0.01 0.01 0 0.01-0.01 0.02 0 0-0.01 0.01-0.01 0-0.01 0.01 0 0.01-0.01 0.01-0.01 0.01-0.01 0.02 0 0-0.01 0 0 0.01-0.01 0.02-0.01 0-0.01 0.01-0.01 0-0.01 0.01 0 0.01-0.01 0.01 0 0.01-0.01 0.02-0.57 0.67-1.1 1.36-0.01 0.01-0.02 0.02l15.8 12.26q0.32-0.41 0.66-0.81zm-2.45 3.16q-0.08 0.11-0.16 0.23 0 0-0.01 0 0 0.01-0.01 0.02 0 0 0 0.01-0.01 0-0.01 0.01-0.48 0.69-0.92 1.39l16.9 10.7q0.28-0.44 0.58-0.87zm-2.14 3.38q-0.23 0.4-0.45 0.82 0 0-0.01 0 0 0 0 0.01-0.25 0.46-0.49 0.93l17.85 9.03q0.24-0.47 0.49-0.92zm-1.8 3.57q-0.1 0.23-0.2 0.45v0.01q-0.01 0.02-0.03 0.05-0.01 0.03-0.02 0.06-0.27 0.63-0.52 1.27l18.63 7.27q0.19-0.49 0.4-0.96zm-1.45 3.73q-0.13 0.4-0.26 0.8 0 0.01 0 0.01-0.01 0.01-0.01 0.02 0 0.01 0 0.01-0.01 0.01-0.01 0.02 0 0.01 0 0.01-0.01 0.01-0.01 0.02 0 0.01 0 0.01 0 0.01-0.01 0.02 0 0.01 0 0.01 0 0.01-0.01 0.02 0 0.01 0 0.01 0 0.01-0.01 0.02 0 0.01 0 0.01 0 0.01 0 0.02-0.01 0.01-0.01 0.01 0 0.01 0 0.02-0.01 0.01-0.01 0.01 0 0.01 0 0.03 0 0-0.01 0 0 0.01 0 0.03 0 0 0 0-0.01 0.01-0.01 0.03 0 0 0 0-0.01 0.01-0.01 0.03 0 0 0 0-0.01 0.02-0.01 0.03 0 0 0 0 0 0.01-0.01 0.03 0 0 0 0 0 0.02-0.01 0.03 0 0 0 0 0 0.01-0.01 0.03 0 0 0 0 0 0.01 0 0.03 0 0-0.01 0 0 0.01 0 0.03 0 0 0 0-0.09 0.28-0.16 0.55l19.24 5.44q0.14-0.5 0.31-0.99zm-1.09 3.85q-0.18 0.79-0.33 1.59-0.04 0.18-0.07 0.36l19.68 3.56q0.09-0.51 0.21-1.02zm-0.71 3.94q-0.08 0.64-0.15 1.28 0 0 0 0.01 0 0.01 0 0.02 0 0.01 0 0.01 0 0.01 0 0.02 0 0.01 0 0.02 0 0 0 0.01-0.01 0.01-0.01 0.02-0.03 0.3-0.05 0.59l19.93 1.66q0.05-0.52 0.11-1.04zm-0.33 3.98q-0.01 0.48-0.02 0.96 0 0.01 0 0.01 0 0.02 0 0.03 0 0 0 0 0 0.03 0 0.06 0 0 0 0.01 0 0.01 0 0.03 0 0 0 0.01 0 0.02 0 0.04 0 0.01 0 0.02 0 0.01 0 0.02 0 0.01 0 0.02 0 0.01 0 0.02 0 0.02 0 0.03 0 0.01 0 0.02 0 0.02 0 0.03 0 0.01 0 0.02 0 0.01 0 0.03 0 0 0 0.01 0 0.02 0 0.04 0 0.01 0 0.01 0 0.02 0 0.03 0 0.01 0 0.02 0 0.02 0 0.04 0 0.01 0 0.03 0 0.01 0 0.02 0 0 0 0.01 0 0.02 0 0.03 0 0.2 0 0.4l20-0.23v-0.26q0-0.4 0.01-0.8zm20.01 2.82l-19.96 1.18q0.05 0.85 0.13 1.7 0 0 0 0 0 0.02 0.01 0.03-0.01 0 0 0.01 0 0.01 0 0.02 0 0.01 0 0.01 0 0.01 0 0.02 0 0.01 0 0.02 0 0 0 0 0.01 0.09 0.02 0.18l19.89-2.13q-0.06-0.52-0.09-1.04zm0.23 2.08l-19.77 3.08q0.01 0.01 0.01 0.03 0 0.01 0 0.01 0 0.01 0 0.02 0 0.01 0.01 0.02 0 0.01 0 0.01 0 0.01 0 0.03 0 0 0 0 0.13 0.79 0.28 1.57 0 0 0 0 0 0.01 0.01 0.02 0 0.01 0 0.02 0 0 0 0.01 0 0.01 0.01 0.02 0 0.01 0 0.01 0 0.01 0 0.03 0 0 0 0 0.02 0.08 0.04 0.17l19.59-4.03q-0.1-0.51-0.18-1.02zm0.41 2.02l-19.37 4.97q0.25 0.98 0.54 1.93l19.11-5.9q-0.15-0.5-0.28-1zm0.61 1.98l-18.8 6.81q0.34 0.95 0.73 1.87l18.45-7.72q-0.2-0.48-0.38-0.96zm0.8 1.9l-18.06 8.6q0.05 0.11 0.11 0.22 0 0 0 0.01 0 0 0.01 0.01 0 0.01 0 0.02 0 0 0.01 0 0.26 0.55 0.55 1.1 0 0.01 0.01 0.02 0 0.01 0 0.01 0.01 0.01 0.01 0.02 0.01 0 0.01 0.01 0 0.01 0.01 0.01 0 0.01 0.01 0.02 0 0.01 0 0.01 0.09 0.16 0.17 0.33l17.63-9.46q-0.25-0.46-0.47-0.93zm0.98 1.83l-17.15 10.3q0.15 0.24 0.3 0.48 0 0.01 0.01 0.02 0 0 0 0 0.01 0.01 0.01 0.02 0 0.01 0.01 0.02 0 0 0 0 0.36 0.58 0.74 1.14l16.64-11.1q-0.29-0.43-0.56-0.88zm1.16 1.73l-16.09 11.89q0.11 0.15 0.23 0.3 0.01 0.01 0.02 0.03 0.01 0.01 0.01 0.02 0.01 0 0.01 0 0 0.01 0.01 0.02 0 0.01 0.01 0.01 0 0.01 0.01 0.02 0 0 0.01 0 0 0.01 0.01 0.02 0 0.01 0.01 0.01 0 0.01 0.01 0.01 0 0.01 0.01 0.02 0 0 0.01 0.01 0 0.01 0 0.01 0.01 0.01 0.01 0.01 0.01 0.01 0.01 0.02 0.01 0 0.01 0.01 0.01 0.01 0.01 0.01 0.01 0.01 0.01 0.01 0.01 0.01 0.01 0.02 0.01 0.01 0.01 0.01 0.01 0.01 0.01 0.02 0.01 0 0.01 0.01 0.01 0 0.01 0.01 0.01 0.01 0.01 0.01 0 0.01 0.01 0.02 0 0 0.01 0 0 0.01 0.01 0.02 0 0.01 0 0.01 0.01 0.01 0.02 0.02 0 0 0 0 0.35 0.45 0.71 0.89l15.5-12.64q-0.33-0.41-0.64-0.83zm1.32 1.62l-14.88 13.37q0.67 0.74 1.37 1.46l14.23-14.07q-0.37-0.37-0.72-0.76zm1.47 1.49l-13.54 14.72q0.38 0.35 0.76 0.69 0 0 0 0 0.01 0 0.02 0.01 0.01 0.01 0.01 0.01 0.01 0 0.01 0.01 0.01 0 0.02 0.01 0 0 0 0.01 0.01 0 0.02 0.01 0.33 0.29 0.67 0.57l12.81-15.35q-0.4-0.34-0.78-0.69zm1.6 1.34l-12.07 15.95q0.46 0.34 0.93 0.68 0.34 0.25 0.69 0.49l11.3-16.51q-0.43-0.3-0.85-0.61zm1.72 1.18l-10.49 17.02q0.05 0.04 0.1 0.07 0.01 0 0.01 0 0.01 0.01 0.02 0.01 0 0 0.01 0.01 0 0 0.01 0.01 0.01 0 0.02 0.01 0 0 0 0 0.75 0.46 1.52 0.88 0 0 0 0 0.01 0.01 0.02 0.01 0.01 0.01 0.02 0.01 0 0 0 0l9.66-17.51q-0.46-0.25-0.9-0.52zm1.82 1l-8.81 17.96q0.17 0.08 0.34 0.16 0.01 0.01 0.02 0.01 0.01 0 0.01 0 0.01 0.01 0.02 0.01 0 0.01 0.01 0.01 0.01 0 0.02 0.01 0 0 0.01 0 0.01 0.01 0.01 0.01 0.01 0 0.02 0.01 0.01 0 0.01 0 0.01 0.01 0.02 0.01 0 0 0.01 0.01 0.01 0 0.02 0.01 0 0 0.01 0 0.01 0 0.02 0.01 0 0 0 0 0.63 0.3 1.27 0.57l7.93-18.36q-0.48-0.2-0.94-0.43zm1.9 0.82l-7.04 18.72q0.94 0.35 1.89 0.66l6.12-19.04q-0.49-0.16-0.97-0.34zm1.97 0.63l-5.2 19.32q0.12 0.03 0.24 0.06 0.01 0 0.03 0.01 0 0 0 0 0.01 0 0.03 0 0 0.01 0 0.01 0.01 0 0.03 0 0 0 0.01 0 0.01 0.01 0.01 0.01 0.01 0 0.02 0 0.01 0 0.01 0.01 0.02 0 0.03 0 0 0 0 0 0.01 0.01 0.03 0.01 0 0 0 0 0.75 0.19 1.5 0.36l4.26-19.54q-0.51-0.11-1-0.25zm2.02 0.44l-3.32 19.73q0.76 0.12 1.52 0.22 0.23 0.04 0.46 0.06l2.37-19.86q-0.52-0.06-1.03-0.15zm2.07 0.25l-1.41 19.95q0.2 0.01 0.4 0.03 0.01 0 0.02 0 0 0 0.01 0 0.01 0 0.02 0 0.01 0 0.01 0 0.02 0 0.03 0 0 0 0 0 0.48 0.03 0.96 0.05 0.01 0 0.01 0 0.01-0.01 0.02 0 0.01 0 0.02 0 0 0 0.01 0 0.01 0 0.02 0 0.01 0 0.01 0 0.01 0 0.03 0 0 0 0 0 0.21 0 0.42 0.01l0.47-20q-0.53 0-1.05-0.04zm3.16 0q-0.53 0.04-1.05 0.05l0.47 19.99q0.29 0 0.57-0.01 0.03 0 0.05-0.01 0.01 0 0.01 0 0.01 0 0.03 0 0 0 0 0 0.02 0 0.03 0 0.6-0.02 1.19-0.06 0 0 0 0 0.03 0 0.06-0.01 0 0 0 0 0.01 0 0.03 0 0.01 0 0.03 0zm2.07-0.25q-0.51 0.09-1.03 0.15l2.37 19.86q0.93-0.11 1.84-0.26 0 0 0 0 0.01 0 0.03 0 0-0.01 0-0.01 0.02 0 0.03 0 0 0 0.01 0 0.01 0 0.02 0 0-0.01 0.01-0.01 0.01 0 0.02 0 0.01 0 0.01 0 0.01 0 0.01 0zm2.02-0.44q-0.5 0.13-1 0.24l4.27 19.54q0.11-0.02 0.22-0.05 0 0 0 0 0.01 0 0.03 0 0-0.01 0.01-0.01 0.01 0 0.02 0 0 0 0.01 0 0.01-0.01 0.02-0.01 0.01 0 0.02 0 0 0 0.01 0 0.01-0.01 0.02-0.01 0 0 0.01 0 0.01 0 0.02-0.01 0 0 0 0 0.02 0 0.03 0 0 0 0 0 0.38-0.09 0.76-0.19 0.02 0 0.03 0 0 0 0 0 0.02-0.01 0.03-0.01 0 0 0.01 0 0.01 0 0.02-0.01 0 0 0.01 0 0.01 0 0.02 0 0 0 0.01-0.01 0.01 0 0.02 0 0 0 0.01 0 0.01-0.01 0.02-0.01 0 0 0.01 0 0.01 0 0.02-0.01 0 0 0.01 0 0.01 0 0.02 0 0-0.01 0.01-0.01 0.01 0 0.02 0 0 0 0.01 0 0.01 0 0.02-0.01 0 0 0.01 0 0.01 0 0.02-0.01 0 0 0.01 0 0.01 0 0.02 0 0.2-0.05 0.4-0.11zm1.96-0.63q-0.48 0.18-0.97 0.34l6.13 19.04q0.46-0.15 0.92-0.31 0 0 0 0 0.01-0.01 0.02-0.01 0.01 0 0.01 0 0.01-0.01 0.02-0.01 0.01 0 0.01 0 0.01-0.01 0.02-0.01 0.01 0 0.01-0.01 0.01 0 0.02 0 0.01 0 0.01-0.01 0.01 0 0.02 0 0.01 0 0.02-0.01 0 0 0 0 0.02 0 0.03-0.01 0 0 0 0 0.39-0.14 0.78-0.28zm1.9-0.82q-0.47 0.22-0.95 0.43l7.94 18.36q0.53-0.23 1.05-0.47 0 0 0 0 0.01-0.01 0.02-0.01 0.01-0.01 0.01-0.01 0.01 0 0.02-0.01 0 0 0.01 0 0.01 0 0.02-0.01 0 0 0.01 0 0.01-0.01 0.01-0.01 0.01 0 0.02-0.01 0 0 0.01 0 0.01-0.01 0.02-0.01 0 0 0 0 0.31-0.15 0.62-0.3zm1.82-1q-0.45 0.27-0.9 0.52l9.67 17.51q0.09-0.05 0.18-0.1 0 0 0 0 0.01-0.01 0.02-0.01 0-0.01 0.01-0.01 0.01 0 0.02-0.01 0 0 0.01 0 0-0.01 0.01-0.01 0.01-0.01 0.01-0.01 0.01 0 0.02-0.01 0 0 0.01-0.01 0.01 0 0.01 0 0.01 0 0.02-0.01 0 0 0.01 0 0.01-0.01 0.02-0.02 0.69-0.39 1.37-0.81zm1.72-1.18q-0.41 0.32-0.85 0.61l11.3 16.5q0.38-0.25 0.76-0.52 0 0 0 0 0.01-0.01 0.02-0.02 0 0 0 0 0.01-0.01 0.03-0.02 0 0 0 0 0.01-0.01 0.02-0.02 0 0 0.01 0 0.01-0.01 0.02-0.01 0-0.01 0-0.01 0.01-0.01 0.02-0.01 0.01-0.01 0.01-0.01 0.01 0 0.01-0.01 0.01 0 0.02-0.01 0 0 0.01-0.01 0.01 0 0.01-0.01 0.01 0 0.01 0 0.01-0.01 0.02-0.02 0 0 0.01 0 0.01-0.01 0.02-0.02 0 0 0 0 0.01-0.01 0.02-0.02 0 0 0.01 0 0.3-0.22 0.6-0.44zm1.6-1.34q-0.39 0.35-0.79 0.69l12.83 15.34q0 0 0.01-0.01 0 0 0 0 0.01-0.01 0.02-0.02 0.01 0 0.01 0 0.01-0.01 0.02-0.02 0 0 0 0 0.01-0.01 0.02-0.02 0 0 0.01 0 0.01-0.01 0.01-0.02 0.01 0 0.01 0 0.01-0.01 0.02-0.02 0 0 0.01 0 0-0.01 0.01-0.02 0 0 0.01-0.01 0.01 0 0.01-0.01 0.01 0 0.02-0.01 0 0 0.01-0.01 0 0 0.01-0.01 0.01 0 0.01 0 0.01-0.01 0.01-0.02 0.01 0 0.01 0 0.01-0.01 0.02-0.02 0 0 0.01 0 0-0.01 0.01-0.02 0.01 0 0.01 0 0.01-0.01 0.02-0.02 0 0 0 0 0.01-0.01 0.02-0.02 0 0 0.01 0 0.01-0.01 0.02-0.02 0.01-0.01 0.02-0.02 0.5-0.43 0.98-0.87 0 0 0.01 0 0-0.01 0.02-0.02 0 0 0-0.01 0.01 0 0.02-0.01 0 0 0.01-0.01 0-0.01 0.01-0.01 0.01-0.01 0.01-0.01 0.01-0.01 0.01-0.01 0.01-0.01 0.02-0.02 0 0 0 0 0.01-0.01 0.02-0.02 0.01 0 0.01-0.01zm1.47-1.49q-0.35 0.39-0.71 0.77l14.22 14.05q0 0 0.01 0 0.01-0.01 0.01-0.02 0 0 0.01 0 0.47-0.48 0.92-0.97 0 0 0 0 0.01-0.01 0.02-0.02 0.01-0.01 0.01-0.01 0.01-0.01 0.01-0.01 0.01-0.01 0.01-0.02 0.01 0 0.01-0.01 0.01 0 0.02-0.01 0 0 0-0.01 0.01-0.01 0.02-0.02 0.16-0.18 0.32-0.35zm1.32-1.62q-0.31 0.42-0.64 0.82l15.5 12.64q0.01 0 0.01-0.01 0.01-0.01 0.01-0.01 0.01-0.01 0.01-0.01 0.01-0.01 0.01-0.02 0.01 0 0.01-0.01 0.01-0.01 0.01-0.01 0.01-0.01 0.01-0.02 0.01 0 0.01-0.01 0.01 0 0.01-0.01 0.01-0.01 0.01-0.01 0.01-0.01 0.02-0.02 0 0 0 0 0.01-0.01 0.02-0.02 0-0.01 0-0.01 0.01-0.01 0.02-0.02 0.31-0.39 0.62-0.79 0-0.01 0.01-0.02 0 0 0 0 0.01-0.01 0.02-0.02 0 0 0-0.01 0.01 0 0.02-0.01 0-0.01 0-0.01 0.01-0.01 0.01-0.01 0.01-0.01 0.01-0.02 0 0 0.01-0.01 0 0 0.01-0.02 0 0 0 0 0.18-0.23 0.36-0.47zm1.15-1.73q-0.26 0.44-0.55 0.87l16.64 11.1q0.06-0.1 0.13-0.21 0.01 0 0.02-0.02 0 0 0 0 0.46-0.7 0.9-1.43 0-0.01 0.01-0.02 0 0 0-0.01zm0.98-1.82q-0.22 0.47-0.46 0.92l17.62 9.45q0.14-0.25 0.27-0.51 0.22-0.41 0.42-0.83 0 0 0 0 0-0.01 0.01-0.02 0-0.01 0.01-0.01 0-0.01 0.01-0.02 0-0.01 0-0.01 0-0.01 0.01-0.02 0-0.01 0.01-0.02 0 0 0 0 0.08-0.17 0.16-0.34zm0.8-1.91q-0.18 0.49-0.37 0.96l18.45 7.72q0.14-0.35 0.28-0.7 0 0 0 0 0.01-0.01 0.01-0.02 0-0.01 0.01-0.01 0-0.01 0-0.02 0.01-0.01 0.01-0.02 0 0 0.01-0.01 0-0.01 0.01-0.03-0.01 0 0 0 0.2-0.52 0.4-1.06zm0.6-1.97q-0.12 0.5-0.28 0.99l19.12 5.9q0.06-0.21 0.12-0.42 0.01-0.01 0.01-0.03 0 0 0 0 0-0.01 0.01-0.02 0-0.01 0-0.01 0-0.01 0.01-0.02 0-0.01 0-0.01 0-0.01 0.01-0.02 0-0.01 0-0.01 0-0.01 0-0.02 0-0.01 0.01-0.01 0-0.01 0-0.02 0-0.01 0-0.01 0.01-0.01 0.01-0.03 0 0 0 0 0.01-0.01 0.01-0.03 0 0 0 0 0-0.01 0.01-0.03 0-0.01 0.01-0.03 0.17-0.6 0.33-1.2zm0.41-2.03q-0.08 0.51-0.18 1.02l19.59 4.02q0.17-0.85 0.31-1.72 0.02-0.12 0.04-0.25zm0.23-2.07q-0.04 0.52-0.09 1.04l19.89 2.12q0.03-0.35 0.07-0.7 0 0 0 0 0-0.02 0-0.03 0 0 0-0.01 0-0.01 0-0.02 0 0 0-0.01 0-0.01 0-0.01 0.05-0.57 0.09-1.15 0-0.03 0-0.06zm20.01-2.83l-19.99 0.72q0.02 0.4 0.02 0.8v0.26l19.99 0.23q0.01-0.2 0.01-0.4 0 0 0 0 0-0.01 0-0.02 0-0.01 0-0.02 0-0.01 0-0.02 0-0.01 0-0.03 0-0.02 0-0.04 0-0.01 0-0.01 0-0.02 0-0.03 0-0.01 0-0.02 0-0.02 0-0.04 0 0 0-0.01 0-0.01 0-0.03 0-0.01 0-0.02 0-0.01 0-0.03 0-0.01 0-0.02 0-0.01 0-0.03 0 0 0-0.02 0-0.01 0-0.02 0-0.02 0-0.04 0 0 0-0.01 0-0.01 0-0.03 0 0 0-0.01 0-0.05 0-0.09 0 0 0-0.01 0-0.01 0-0.03 0 0 0 0-0.01-0.22-0.01-0.44 0-0.04 0-0.09 0 0 0-0.01 0-0.01 0-0.02 0-0.01 0-0.02 0-0.02 0-0.03 0-0.01-0.01-0.03 0-0.01 0-0.02 0-0.01 0-0.03 0 0 0-0.01-0.01-0.13-0.01-0.28zm-0.33-3.98l-19.83 2.61q0.07 0.52 0.11 1.04l19.93-1.66q-0.02-0.24-0.04-0.47 0 0 0 0 0-0.01 0-0.03 0 0 0-0.01-0.01-0.01-0.01-0.02 0 0 0-0.01 0-0.01 0-0.02 0-0.01 0-0.02 0-0.01 0-0.01 0-0.02-0.01-0.03-0.06-0.69-0.15-1.37zm-0.72-3.93l-19.48 4.5q0.12 0.5 0.21 1.01l19.68-3.56q-0.09-0.47-0.19-0.95 0-0.01 0-0.02 0-0.01 0-0.01 0-0.01-0.01-0.02 0-0.01 0-0.01 0-0.01 0-0.02 0-0.01 0-0.02-0.01 0-0.01-0.01 0-0.01 0-0.02 0 0 0-0.01-0.01-0.01-0.01-0.02 0-0.01 0-0.01 0-0.01 0-0.02 0-0.01-0.01-0.01 0-0.01 0-0.03 0 0 0 0-0.01-0.02-0.01-0.03 0 0 0 0 0-0.02 0-0.03 0 0 0 0-0.01-0.02-0.01-0.03 0 0 0 0 0-0.02-0.01-0.03 0 0 0 0-0.03-0.16-0.07-0.32 0 0 0 0 0-0.02 0-0.03-0.01-0.01-0.01-0.03 0 0 0 0 0-0.01-0.01-0.02 0-0.01 0-0.01-0.03-0.12-0.06-0.24zm-1.08-3.85l-18.96 6.36q0.16 0.49 0.3 0.99l19.25-5.44q0 0 0-0.01-0.01-0.01-0.01-0.01 0-0.01 0-0.02 0-0.01-0.01-0.01 0-0.01 0-0.02 0-0.01 0-0.01-0.01-0.01-0.01-0.03-0.21-0.74-0.45-1.46 0-0.01 0-0.01 0-0.01-0.01-0.02 0-0.01 0-0.01 0-0.01 0-0.01-0.06-0.15-0.1-0.29zm-1.46-3.73l-18.26 8.16q0.22 0.48 0.4 0.96l18.63-7.27q-0.36-0.94-0.77-1.85zm-1.8-3.57l-17.39 9.88q0.25 0.46 0.49 0.92l17.84-9.03q-0.39-0.78-0.82-1.55-0.01-0.01-0.02-0.02 0 0 0-0.01 0-0.01-0.01-0.02 0 0 0 0-0.01-0.01-0.02-0.03 0 0 0 0-0.01-0.01-0.01-0.02 0-0.01-0.01-0.01 0-0.01-0.01-0.02 0 0 0-0.01-0.01-0.01-0.01-0.02 0 0-0.01-0.01 0-0.01 0-0.01-0.01-0.01-0.02-0.02 0-0.01 0-0.01 0 0 0-0.01zm-2.14-3.37l-16.37 11.5q0.3 0.42 0.58 0.86l16.9-10.7q-0.07-0.1-0.13-0.2 0-0.01-0.01-0.01 0-0.01 0-0.01-0.01-0.01-0.01-0.02h-0.01q-0.32-0.5-0.65-0.99-0.01-0.01-0.01-0.01 0-0.01-0.01-0.02 0 0-0.01-0.01 0-0.01-0.01-0.01-0.13-0.19-0.26-0.38zm-2.45-3.16l-15.2 13.01q0.34 0.39 0.66 0.81l15.8-12.27q-0.06-0.07-0.12-0.15 0-0.01-0.01-0.02-0.01 0-0.01 0 0-0.01-0.01-0.03-0.01 0-0.01 0 0-0.01-0.01-0.02 0 0-0.01-0.01 0-0.01-0.01-0.01 0-0.01-0.01-0.02 0 0-0.01-0.01 0 0-0.01-0.01 0 0-0.01-0.01 0-0.01-0.01-0.02 0 0 0-0.01-0.01 0-0.02-0.01 0-0.01 0-0.01-0.01-0.01-0.02-0.02 0 0 0 0-0.01-0.01-0.02-0.02 0-0.01 0-0.01-0.01-0.01-0.02-0.02 0 0 0 0-0.01-0.01-0.02-0.02 0 0 0 0-0.01-0.02-0.02-0.03 0 0 0 0-0.01-0.01-0.02-0.02 0 0 0 0-0.01-0.01-0.02-0.02 0 0 0-0.01-0.01-0.01-0.02-0.02 0 0 0 0-0.01-0.01-0.02-0.02 0 0 0-0.01-0.01-0.01-0.02-0.02 0 0 0 0-0.01-0.01-0.02-0.02 0 0 0-0.01-0.01 0-0.01-0.01-0.01-0.01-0.01-0.01-0.01-0.01-0.01-0.02-0.01 0-0.01-0.01-0.01 0-0.01-0.01-0.01-0.01-0.01-0.01-0.01-0.01-0.01-0.02 0 0-0.01-0.01 0 0-0.01-0.01-0.01-0.01-0.01-0.01 0-0.01-0.01-0.02 0 0-0.01-0.01 0 0-0.01-0.01 0 0-0.01-0.01 0-0.01-0.01-0.01 0-0.01-0.01-0.02 0 0-0.01-0.01 0 0-0.01-0.01 0 0-0.01-0.01 0-0.01-0.01-0.02 0 0-0.01-0.01 0 0-0.01-0.01 0 0-0.01-0.01 0-0.01-0.01-0.02 0 0 0 0-0.01-0.01-0.02-0.02 0 0 0-0.01-0.01 0-0.02-0.02 0 0 0 0-0.01-0.01-0.02-0.02 0 0 0 0-0.01-0.01-0.02-0.02 0-0.01 0-0.01-0.01-0.01-0.02-0.02 0 0 0 0-0.01-0.01-0.02-0.02 0 0 0 0-0.01-0.01-0.02-0.03 0 0 0 0-0.01-0.01-0.02-0.02 0 0 0 0-0.01-0.01-0.02-0.02 0-0.01 0-0.01-0.01-0.01-0.02-0.02 0 0 0 0-0.01-0.01-0.02-0.02 0 0 0-0.01-0.01-0.01-0.02-0.01 0-0.01 0-0.01-0.01-0.01-0.02-0.02 0 0 0-0.01-0.01 0-0.02-0.01 0 0 0-0.01-0.01-0.01-0.02-0.02 0 0-0.01 0 0-0.01-0.01-0.02 0 0-0.01-0.01 0 0-0.01-0.01 0-0.01-0.01-0.01 0-0.01-0.01-0.01 0-0.01-0.01-0.02 0 0-0.01-0.01 0-0.01-0.01-0.02 0 0-0.01 0 0-0.01-0.01-0.02 0 0-0.01 0-0.06-0.08-0.12-0.15zm-2.75-2.91l-13.88 14.39q0.38 0.37 0.73 0.75l14.56-13.72q0 0 0 0-0.69-0.73-1.41-1.42zm-3-2.64l-12.45 15.66q0.41 0.32 0.8 0.67l13.18-15.04q-0.12-0.11-0.23-0.21-0.01 0-0.01 0-0.01-0.01-0.02-0.02 0 0-0.01-0.01 0 0-0.01-0.01-0.62-0.53-1.25-1.04zm-3.25-2.33l-10.9 16.77q0.44 0.28 0.86 0.59l11.69-16.23q-0.23-0.17-0.46-0.33 0 0 0 0-0.01 0-0.01-0.01-0.01 0-0.01-0.01-0.01 0-0.01 0-0.01-0.01-0.02-0.01 0 0 0 0-0.26-0.18-0.52-0.36 0 0 0 0-0.01-0.01-0.02-0.02-0.01 0-0.01-0.01-0.01 0-0.02 0-0.01-0.01-0.02-0.02 0 0 0 0-0.27-0.18-0.55-0.36zm-3.45-2.02l-9.24 17.74q0.46 0.24 0.91 0.5l10.08-17.27q-0.22-0.13-0.43-0.25-0.03-0.02-0.06-0.03-0.03-0.02-0.05-0.03-0.6-0.34-1.21-0.66zm-3.63-1.67l-7.49 18.54q0.48 0.2 0.95 0.41l8.37-18.16q0 0-0.01 0-0.01-0.01-0.01-0.01-0.01 0-0.02-0.01-0.01 0-0.01 0-0.01-0.01-0.02-0.01 0 0-0.01-0.01-0.01 0-0.02 0 0-0.01-0.01-0.01-0.01 0-0.02-0.01 0 0-0.01 0 0-0.01-0.01-0.01-0.01 0-0.02-0.01 0 0-0.01 0-0.01 0-0.01-0.01-0.01 0-0.02 0-0.01-0.01-0.01-0.01-0.01 0-0.02-0.01-0.01 0-0.01 0-0.01 0-0.01-0.01-0.01 0-0.02-0.01-0.01 0-0.01 0-0.01 0-0.02-0.01-0.75-0.34-1.52-0.65zm-3.78-1.32l-5.66 19.18q0.49 0.15 0.98 0.32l6.58-18.89q-0.66-0.23-1.33-0.44 0 0 0 0-0.02 0-0.03-0.01-0.01 0-0.01 0-0.01 0-0.02 0-0.01-0.01-0.01-0.01-0.01 0-0.02 0-0.01-0.01-0.02-0.01-0.01 0-0.01 0-0.01 0-0.03-0.01 0 0 0 0-0.21-0.07-0.42-0.13zm-3.88-0.94l-3.79 19.63q0.51 0.1 1.01 0.22l4.73-19.43q0 0 0 0-0.01 0-0.02 0-0.01-0.01-0.02-0.01-0.01 0-0.01 0-0.01 0-0.02-0.01-0.01 0-0.01 0-0.01 0-0.02 0-0.01 0-0.01-0.01-0.01 0-0.02 0-0.01 0-0.01 0-0.01 0-0.03-0.01 0 0 0 0-0.02 0-0.03-0.01 0 0 0 0-0.02 0-0.03 0-0.41-0.1-0.82-0.19 0 0 0 0-0.03-0.01-0.06-0.01-0.01 0-0.01 0-0.01-0.01-0.03-0.01 0 0 0 0-0.01 0-0.03-0.01 0 0.01 0 0-0.01 0-0.03 0 0 0 0 0-0.01 0-0.02-0.01-0.01 0-0.02 0 0 0-0.01 0-0.01 0-0.02 0 0 0-0.01-0.01-0.33-0.07-0.66-0.13zm-3.96-0.57l-1.89 19.91q0.52 0.05 1.03 0.12l2.84-19.8q-0.25-0.03-0.5-0.06-0.01-0.01-0.03-0.01 0 0-0.01 0-0.01 0-0.02 0-0.01 0-0.01 0-0.01 0-0.02-0.01-0.01 0-0.02 0 0 0-0.01 0-0.01 0-0.02 0 0 0-0.01 0-0.01 0-0.02-0.01-0.01 0-0.01 0-0.01 0-0.03 0-0.44-0.06-0.89-0.1h-0.01q-0.01 0-0.02 0 0 0-0.01-0.01-0.01 0-0.01 0-0.01 0-0.02 0-0.01 0-0.01 0-0.01 0-0.03 0 0 0 0 0-0.14-0.02-0.27-0.03zm-3.99-0.19v20q0.53 0 1.05 0.02l0.94-19.97q-0.6-0.03-1.21-0.04-0.02 0-0.03 0 0 0 0 0-0.02 0-0.03 0 0 0-0.01 0-0.01 0-0.02 0 0 0-0.01 0-0.01 0-0.02 0-0.01 0-0.01 0-0.01 0-0.02 0-0.01 0-0.01 0-0.01 0-0.03 0 0 0 0 0-0.02 0-0.03 0 0 0-0.01 0-0.01 0-0.02 0 0 0-0.01 0-0.01 0-0.02 0-0.01 0-0.01 0-0.01 0-0.02 0 0 0-0.01 0-0.02 0-0.04 0-0.01 0-0.01 0-0.01 0-0.02 0-0.01 0-0.02 0-0.01 0-0.01 0-0.01 0-0.02 0-0.01 0-0.01 0-0.01 0-0.02 0-0.01 0-0.02 0-0.01 0-0.01 0-0.01 0-0.02 0-0.01 0-0.02 0-0.01 0-0.01 0-0.01 0-0.02 0-0.01 0-0.02 0 0 0-0.01 0-0.01 0-0.02 0-0.01 0-0.02 0 0 0-0.01 0-0.01 0-0.02 0-0.01 0-0.01 0-0.01 0-0.02 0-0.01 0-0.02 0-0.01 0-0.02 0 0 0-0.01 0-0.02-0.01-0.03-0.01z"/>
		</g>
		<g>
			<path class="s2" d="m-43.31 0c-23.03 0-41.69 18.66-41.69 41.7 0 23.02 18.66 41.68 41.69 41.68 23.03 0 41.7-18.66 41.7-41.68 0-23.04-18.67-41.7-41.7-41.7zm0 2c21.89 0 39.7 17.81 39.7 39.7 0 21.88-17.81 39.68-39.7 39.68-21.89 0-39.69-17.8-39.69-39.68 0-21.89 17.8-39.7 39.69-39.7z"/>
		</g>
		<g style="opacity: .06">
			<path class="s4" d="m-7.29 41.7c0 19.88-16.13 36.01-36.02 36.01-19.88 0-36.01-16.13-36.01-36.01 0-19.89 16.13-36.02 36.01-36.02 19.89 0 36.02 16.13 36.02 36.02z"/>
		</g>
		<g>
			<path class="s2" d="m-43.31 69.83c-15.51 0-28.13-12.62-28.13-28.13 0-15.5 12.62-28.12 28.13-28.12 15.51 0 28.12 12.62 28.12 28.12 0 15.51-12.61 28.13-28.12 28.13z"/>
			<path class="s3" d="m-43.31 10.58c-17.2 0-31.13 13.93-31.13 31.12 0 17.19 13.93 31.13 31.13 31.13 17.19 0 31.12-13.94 31.12-31.13 0-17.19-13.93-31.12-31.12-31.12zm0 6c13.85 0 25.12 11.27 25.12 25.12 0 13.86-11.27 25.13-25.12 25.13-13.86 0-25.13-11.27-25.13-25.13 0-13.85 11.27-25.12 25.13-25.12z"/>
		</g>
	</g>
	<g>
	</g>
	<g>
	</g>
	<g>
	</g>
	<g>
	</g>
	<g>
	</g>
	<g>
	</g>
	<g>
	</g>
	<g>
	</g>
	<g>
	</g>
	<g>
	</g>
	<g>
	</g>
	<g>
	</g>
	<g>
	</g>
	<g>
	</g>
	<g>
	</g>
</svg>