<svg version="1.2" xmlns="http://www.w3.org/2000/svg" viewBox="0 0 35 55" width="35" height="55">
	<style>
		.s0 { fill: #bd93f9 } 
		.s1 { fill: #8e6fbc } 
	</style>
	<g>
		<g id="Up">
			<g>
				<path class="s0" d="m4.43 41.55v-34.22q0-0.06 0.02-0.14l0.06-0.23c0.03-0.04 0.06-0.1 0.08-0.13 0.49-0.81 2.1-1.52 4.53-1.99q0.46-0.1 0.89-0.18 0.52-0.1 0.96-0.14c0.04 0 0.13-0.01 0.16-0.02 0.26-0.03 0.58-0.08 0.91-0.12q0.5-0.05 1.02-0.1 0.53-0.05 1.02-0.09l2.37-0.07q0.53-0.02 1.05-0.02c7.32 0 13.06 1.42 13.06 3.23 0 0.17 0 15.93 0 34.22l-13.07 13.05z"/>
				<path class="s1" d="m17.49 3.6q-0.52 0-1.05 0.02-0.06 0-0.12 0-0.5 0.01-1 0.03-0.08 0.01-0.16 0.01-0.49 0.01-0.98 0.03-0.07 0-0.14 0-0.5 0.04-0.99 0.08-0.02 0.01-0.04 0.01-0.53 0.05-1.03 0.11-0.5 0.06-0.99 0.13-0.02 0-0.06 0-0.49 0.05-0.94 0.13-0.04 0.01-0.07 0.01-0.46 0.09-0.88 0.19-0.01 0-0.02 0c-2.42 0.47-4.25 1.21-4.86 2.22q-0.06 0.06-0.11 0.16 0 0.01-0.01 0.02-0.02 0.09-0.04 0.18-0.01 0.03-0.02 0.05-0.02 0.06-0.03 0.14-0.02 0.11-0.02 0.21c0 7.75 0 20.6 0 34.43l13.56 13.55 13.57-13.55c0-18.98 0-34.43 0-34.43 0-2.5-6.8-3.73-13.57-3.73zm0 1c8.09 0 12.57 1.62 12.57 2.73q0 0.03 0 0.05v33.97l-12.57 12.55-12.56-12.56v-34q0-0.04 0.01-0.05 0 0 0-0.01 0.02-0.06 0.04-0.14 0.02-0.02 0.03-0.05c0.16-0.25 0.91-1.11 4.19-1.76q0.03 0 0.06-0.01 0.41-0.09 0.83-0.17l0.09-0.02q0.5-0.09 0.79-0.11 0.07 0 0.19-0.02 0.46-0.06 0.92-0.12 0.01 0 0.02 0 0.49-0.06 1-0.11 0.03 0 0.04 0 0.48-0.05 0.97-0.08l0.12-0.01q0.28-0.01 0.57-0.01l0.39-0.01q0.11-0.01 0.17-0.01 0.49-0.02 0.98-0.03l0.13-0.01q0.51-0.01 1.02-0.01z"/>
			</g>
			<path class="s1" d="m9.03 4.35q0 0 0.01 0 0.43-0.1 0.88-0.19 0.04 0 0.07-0.01 0.45-0.08 0.94-0.13 0.04 0 0.06 0 0.5-0.07 0.99-0.13 0.51-0.06 1.03-0.11 0.02 0 0.04-0.01 0.49-0.04 1-0.08 0.06 0 0.13 0 0.49-0.02 0.98-0.03 0.08 0 0.17-0.01 0.49-0.02 0.99-0.03 0.06 0 0.12 0 0.53-0.02 1.06-0.02c6.76 0 13.56 1.23 13.56 3.73l2.75-2.77c-0.9-1.37-2.71-2.71-6.14-3.52-2.74-0.68-6.36-1.04-10.18-1.04-3.84 0-7.45 0.36-10.18 1.04-2.94 0.71-4.71 1.79-5.72 2.96l2.57 2.57c0.62-1.01 2.44-1.75 4.87-2.22z"/>
			<path class="s1" d="m31.06 7.33c0 0 0 15.44 0 34.43l3.6-3.63v-30.8c0-0.85-0.22-1.83-0.85-2.77z"/>
			<path class="s1" d="m3.93 7.33q0-0.1 0.02-0.21 0.02-0.08 0.04-0.15 0-0.01 0.01-0.04 0.02-0.09 0.05-0.18 0-0.01 0.01-0.02 0.04-0.1 0.1-0.16l-2.57-2.57c-0.97 1.12-1.26 2.29-1.26 3.33v30.8l3.6 3.63c0-13.83 0-26.68 0-34.43z"/>
		</g>
		<g id="Down">
			<g>
				<path class="s0" d="m-18.83 51.21c-7.14 0-12.75-1.32-13.05-3.08q-0.02-0.07-0.02-0.15c0-0.13 0-15.41 0-34.21l13.07-13.06 13.06 13.06v34.22q0 0.07-0.02 0.15c-0.3 1.75-5.91 3.07-13.04 3.07z"/>
				<path class="s1" d="m-18.83 0l-13.57 13.56c0 18.98 0 34.43 0 34.43q0 0.1 0.02 0.23c0.41 2.33 6.98 3.49 13.54 3.49 6.57 0 13.14-1.16 13.55-3.49q0.02-0.13 0.02-0.23c0-7.75 0-20.6 0-34.43zm0 1.42l12.56 12.56v34.01q0 0.03 0 0.06c-0.2 1.12-4.67 2.66-12.56 2.66-7.89 0-12.36-1.54-12.56-2.65q0-0.05-0.01-0.07v-34.01z"/>
			</g>
			<path class="s1" d="m-5.27 47.98l2.75 2.78c0.63-0.95 0.85-1.92 0.85-2.77v-30.81l-3.6-3.62c0 13.83 0 26.68 0 34.43z"/>
			<path class="s1" d="m-5.29 48.22c-0.41 2.33-6.98 3.49-13.54 3.49-6.57 0-13.14-1.16-13.55-3.49q-0.02-0.13-0.02-0.23l-2.78 2.77c0.93 1.36 2.74 2.7 6.17 3.52 2.72 0.67 6.33 1.04 10.18 1.04 3.81 0 7.43-0.37 10.17-1.04 3.43-0.82 5.24-2.16 6.14-3.53l-2.75-2.77q0 0.11-0.02 0.24z"/>
			<path class="s1" d="m-32.4 47.98c0 0.01 0-15.44 0-34.42l-3.6 3.62v30.81 0.84l0.09 0.24c0.13 0.54 0.35 1.12 0.73 1.69z"/>
		</g>
	</g>
	<g>
		<g id="Right">
			<g>
				<path class="s0" d="m-22.23 87.56l-13.06-13.06 13.06-13.06h34.21c1.81 0 3.23 5.74 3.23 13.06 0 7.32-1.42 13.06-3.23 13.06 0 0-34.21 0-34.21 0z"/>
				<path class="s1" d="m11.98 60.95c-7.76-0.01-20.61-0.01-34.42-0.01l-13.56 13.56 13.56 13.56c18.96 0 34.42 0 34.42 0 4.97 0 4.97-27.12 0-27.12zm0 1c1.14 0 2.73 4.78 2.73 12.56 0 7.78-1.59 12.56-2.73 12.56h-34l-12.57-12.56 12.57-12.56z"/>
			</g>
			<path class="s1" d="m11.98 60.95l2.76-2.78c-0.94-0.62-1.92-0.85-2.76-0.85h-30.82l-3.6 3.63c13.81-0.01 26.66-0.01 34.42-0.01z"/>
			<path class="s1" d="m11.98 88.06c0 0-15.46 0-34.42 0l3.6 3.62h30.82 1.5l0.34-0.35q0.46-0.2 0.92-0.49z"/>
			<path class="s1" d="m14.74 58.17l-2.76 2.77c4.97 0 4.97 27.12 0 27.12l2.76 2.77c1.37-0.93 2.71-2.74 3.55-6.14 0.66-2.75 1.03-6.36 1.03-10.19 0-3.84-0.37-7.45-1.03-10.19-0.84-3.4-2.18-5.21-3.55-6.14z"/>
		</g>
		<g id="left">
			<g>
				<path class="s0" d="m-28.66 123.92c-1.82 0-3.25-5.74-3.25-13.06 0-7.32 1.43-13.06 3.25-13.06h34.21l13.07 13.05-13.07 13.07c0 0-34.21 0-34.21 0z"/>
				<path class="s1" d="m5.76 97.3c-18.97 0-34.42 0-34.42 0-4.99 0-4.99 27.12 0 27.12 7.76 0 20.6 0 34.42 0l13.56-13.57zm-0.41 1l12.56 12.56-12.56 12.56h-34.01c-1.14 0-2.74-4.78-2.74-12.56 0-7.78 1.6-12.56 2.74-12.56 0 0 34.01 0 34.01 0z"/>
			</g>
			<path class="s1" d="m5.76 97.3l-3.6-3.62h-30.82c-0.86 0-1.82 0.22-2.78 0.84l2.78 2.78c0 0 15.46 0 34.42 0z"/>
			<path class="s1" d="m-28.66 97.3l-2.78-2.78c-1.37 0.94-2.68 2.74-3.53 6.15-0.66 2.74-1.03 6.36-1.03 10.18 0 3.84 0.37 7.45 1.03 10.2 0.85 3.4 2.16 5.21 3.53 6.14l2.78-2.77c-5 0-5-27.12 0-27.12z"/>
			<path class="s1" d="m-28.66 124.42l-2.78 2.77c0.96 0.62 1.92 0.85 2.78 0.85h30.82l3.6-3.62c-13.82 0-26.66 0-34.42 0z"/>
		</g>
	</g>
	<g>
	</g>
	<g>
	</g>
	<g>
	</g>
	<g>
	</g>
	<g>
	</g>
	<g>
	</g>
	<g>
	</g>
	<g>
	</g>
	<g>
	</g>
	<g>
	</g>
	<g>
	</g>
	<g>
	</g>
	<g>
	</g>
	<g>
	</g>
	<g>
	</g>
</svg>