<svg version="1.2" xmlns="http://www.w3.org/2000/svg" viewBox="0 0 172 63" width="172" height="63">
	<style>
		.s0 { fill: #8be9fd } 
		.s1 { fill: #69afbe } 
	</style>
	<g id="LB_Pressed">
		<path class="s0" d="m134.22 0.76c-42.25-5.62-95.94 21.46-114.22 31.37q-0.42 0.25-0.83 0.47-0.11 0.08-0.25 0.16-0.26 0.13-0.53 0.31-0.13 0.09-0.29 0.16-0.22 0.16-0.45 0.3-0.13 0.07-0.29 0.18-0.2 0.15-0.42 0.27-0.12 0.1-0.27 0.21-0.19 0.12-0.39 0.27-0.13 0.1-0.26 0.19-0.2 0.13-0.37 0.29-0.14 0.08-0.25 0.17-0.18 0.16-0.36 0.29-0.1 0.09-0.22 0.19-0.17 0.14-0.35 0.28-0.11 0.1-0.2 0.19-0.18 0.13-0.34 0.3-0.08 0.09-0.18 0.16-0.17 0.17-0.33 0.32-0.09 0.07-0.17 0.16-0.14 0.17-0.32 0.33-0.07 0.07-0.12 0.15-0.18 0.16-0.33 0.35-0.05 0.07-0.11 0.12-0.17 0.19-0.31 0.37-0.05 0.05-0.1 0.1-0.17 0.21-0.31 0.41-0.03 0.04-0.07 0.08-0.17 0.21-0.32 0.45-0.02 0.02-0.04 0.04-0.18 0.24-0.33 0.47c0.03-0.01 97.69-41.96 121.98-34.38 15.54 4.87 27.23 15.33 32.81 18.23l3.42-6.34c-12.41-3.6-27.03-15.58-34.88-16.62z"/>
		<g>
			<path class="s1" d="m166.17 23.97q0.23 0.09 0.46 0.19-0.23-0.1-0.46-0.19z"/>
			<path class="s1" d="m165.69 23.72c-5.58-2.88-17.26-13.36-32.81-18.23-24.21-7.56-121.31 34.09-121.98 34.37-4.97 7.44-2.21 15.34-10.84 22.97q-0.03 0.02-0.06 0.03c33.16-17.87 99.17-38.11 118.75-34.33 9.12 1.76 19.9 12.09 31.08 24.76l15.85-29.58q0.01 0.01 0.01 0.01z"/>
			<path class="s0" d="m165.69 23.72q0.25 0.13 0.48 0.25-0.23-0.12-0.48-0.25z"/>
		</g>
		<path class="s0" d="m150.56 54.1q0.34 0.44 0.72 0.84l16.38-30.54 3.49-6.53q-0.51-0.09-1.03-0.23-0.51-0.14-1.02-0.27l-3.42 6.34-15.85 29.59q0.34 0.4 0.73 0.8z"/>
	</g>
	<g>
	</g>
	<g>
	</g>
	<g>
	</g>
	<g>
	</g>
	<g>
	</g>
	<g>
	</g>
	<g>
	</g>
	<g>
	</g>
	<g>
	</g>
	<g>
	</g>
	<g>
	</g>
	<g>
	</g>
	<g>
	</g>
	<g>
	</g>
	<g>
	</g>
</svg>