<svg version="1.2" xmlns="http://www.w3.org/2000/svg" viewBox="0 0 47 47" width="47" height="47">
	<style>
		.s0 { fill: #bd93f9 } 
		.s1 { fill: #44475a } 
		.s2 { fill: #8be9fd } 
	</style>
	<g>
		<g>
			<g id="A_1_">
				<path class="s0" d="m-75.31 0c13.1 0 23.7 10.61 23.7 23.68 0 13.08-10.6 23.68-23.7 23.68-13.08 0-23.69-10.6-23.69-23.68 0-13.07 10.61-23.68 23.69-23.68z"/>
			</g>
			<g>
				<path class="s1" d="m-66.55 38.84l-2.78-7.67h-12.13l-2.64 7.66h-5.48l11.46-30.3h5.59l11.51 30.3zm-8.79-25.75h-0.13q-0.15 1.27-0.45 2.17l-4.14 11.68h9.29l-4.16-11.68q-0.21-0.55-0.41-2.17z"/>
			</g>
		</g>
		<g>
			<g id="B_1_">
				<path class="s0" d="m-25.92 0c13.1 0 23.71 10.61 23.71 23.69 0 13.07-10.61 23.68-23.71 23.68-13.08 0-23.69-10.61-23.69-23.68 0-13.08 10.61-23.69 23.69-23.69z"/>
			</g>
			<g>
				<path class="s1" d="m-15.71 30.01c0 2.63-0.99 4.78-2.93 6.39q-2.93 2.44-7.56 2.43h-9.91v-30.3h9.57q4.35 0.01 6.87 1.88 2.52 1.9 2.52 5.09 0 2.47-1.5 4.35c-1.01 1.28-2.32 2.15-3.96 2.67v0.09q3.24 0.42 5.07 2.37c1.2 1.33 1.83 2.99 1.83 5.03zm-6.77-13.54q-0.01-1.81-1.33-2.79-1.36-0.98-3.98-0.98h-3.28v8.39h3.23q2.55 0 3.96-1.21 1.39-1.18 1.4-3.41zm1.43 13.4q0.01-2.17-1.56-3.41-1.56-1.21-4.67-1.2h-3.79v9.41h4.24q2.7 0 4.24-1.31 1.55-1.29 1.54-3.49z"/>
			</g>
		</g>
		<g>
			<g id="Y_1_">
				<path class="s0" d="m72.87 0c13.1 0 23.7 10.61 23.7 23.69 0 13.08-10.6 23.68-23.7 23.68-13.08 0-23.69-10.6-23.69-23.68 0-13.08 10.61-23.69 23.69-23.69z"/>
			</g>
			<g>
				<path class="s1" d="m75.27 27.85v10.98h-5v-10.86l-9.85-19.44h5.72l6.1 12.65q0.3 0.62 0.44 1.12 0.14 0.5 0.25 0.83h0.05q0.22-0.97 0.69-1.91l6.32-12.69h5.32z"/>
			</g>
		</g>
		<g>
			<g id="X_1_">
				<path class="s0" d="m23.47 0c13.1 0 23.71 10.61 23.71 23.69 0 13.07-10.6 23.68-23.71 23.68-13.08 0-23.68-10.61-23.68-23.68 0-13.08 10.6-23.69 23.68-23.69z"/>
			</g>
			<g>
				<path class="s1" d="m30.59 38.83l-6.41-11.02q-0.2-0.42-0.3-0.76-0.08-0.38-0.22-0.76h-0.09q-0.16 0.4-0.27 0.77-0.11 0.33-0.33 0.75l-6.52 11.02h-6.13l10.14-15.19-9.26-15.11h6.19l5.4 9.95q0.77 1.33 1.04 2.27h0.08q0.47-1.19 0.65-1.56 0.18-0.36 6.27-10.66h5.68l-9.46 15.02 9.58 15.28z"/>
			</g>
		</g>
	</g>
	<g>
		<g>
			<g id="A_2_">
				<path class="s2" d="m-75.31 49.38c13.1 0 23.7 10.6 23.7 23.68 0 13.07-10.6 23.68-23.7 23.68-13.08 0-23.69-10.6-23.69-23.68 0-13.08 10.61-23.68 23.69-23.68z"/>
			</g>
			<g>
				<path class="s1" d="m-66.55 88.21l-2.78-7.66h-12.13l-2.64 7.66h-5.48l11.46-30.31h5.59l11.51 30.31zm-8.79-25.75h-0.13q-0.15 1.27-0.45 2.17l-4.14 11.68h9.29l-4.16-11.68q-0.21-0.55-0.41-2.17z"/>
			</g>
		</g>
		<g>
			<g id="B_2_">
				<path class="s2" d="m-25.92 49.37c13.1 0 23.71 10.61 23.71 23.69 0 13.08-10.61 23.68-23.71 23.68-13.08 0-23.69-10.6-23.69-23.68 0-13.08 10.61-23.69 23.69-23.69z"/>
			</g>
			<g>
				<path class="s1" d="m-15.71 79.38c0 2.63-0.99 4.79-2.93 6.39q-2.93 2.44-7.56 2.44h-9.91v-30.31h9.57q4.35 0.02 6.87 1.89 2.52 1.89 2.52 5.09 0 2.47-1.5 4.35c-1.01 1.28-2.32 2.15-3.96 2.67v0.09q3.24 0.41 5.07 2.37c1.2 1.32 1.83 2.98 1.83 5.02zm-6.77-13.54q-0.01-1.81-1.33-2.79-1.36-0.97-3.98-0.97h-3.28v8.38h3.23q2.55 0 3.96-1.2 1.39-1.19 1.4-3.42zm1.43 13.41q0.01-2.18-1.56-3.41-1.56-1.22-4.67-1.21h-3.79v9.41h4.24q2.7 0 4.24-1.3 1.55-1.29 1.54-3.49z"/>
			</g>
		</g>
		<g>
			<g id="Y_2_">
				<path class="s2" d="m72.87 49.37c13.1 0 23.7 10.62 23.7 23.69 0 13.08-10.6 23.68-23.7 23.68-13.08 0-23.69-10.6-23.69-23.68 0-13.07 10.61-23.69 23.69-23.69z"/>
			</g>
			<g>
				<path class="s1" d="m75.27 77.22v10.99h-5v-10.87l-9.85-19.43h5.72l6.1 12.64q0.3 0.62 0.44 1.12 0.14 0.51 0.25 0.83h0.05q0.22-0.96 0.69-1.91l6.32-12.68h5.32z"/>
			</g>
		</g>
		<g>
			<g id="X_2_">
				<path class="s2" d="m23.47 49.37c13.1 0 23.71 10.61 23.71 23.69 0 13.08-10.6 23.68-23.71 23.68-13.08 0-23.68-10.6-23.68-23.68 0-13.08 10.6-23.69 23.68-23.69z"/>
			</g>
			<g>
				<path class="s1" d="m30.59 88.2l-6.41-11.01q-0.2-0.43-0.3-0.77-0.08-0.38-0.22-0.76h-0.09q-0.16 0.4-0.27 0.77-0.11 0.33-0.33 0.75l-6.52 11.02h-6.13l10.14-15.19-9.26-15.11h6.18l5.41 9.96q0.77 1.33 1.04 2.26h0.08q0.46-1.18 0.65-1.56 0.17-0.36 6.27-10.66h5.68l-9.46 15.02 9.58 15.28z"/>
			</g>
		</g>
	</g>
	<g>
	</g>
	<g>
	</g>
	<g>
	</g>
	<g>
	</g>
	<g>
	</g>
	<g>
	</g>
	<g>
	</g>
	<g>
	</g>
	<g>
	</g>
	<g>
	</g>
	<g>
	</g>
	<g>
	</g>
	<g>
	</g>
	<g>
	</g>
	<g>
	</g>
</svg>